<?xml version="1.0" encoding="utf-8"?>
<!-- Generator: Adobe Illustrator 24.3.0, SVG Export Plug-In . SVG Version: 6.00 Build 0)  -->
<svg version="1.1" xmlns="http://www.w3.org/2000/svg" xmlns:xlink="http://www.w3.org/1999/xlink" x="0px" y="0px"
	 viewBox="0 0 1366 768" style="enable-background:new 0 0 1366 768;" xml:space="preserve">
<style type="text/css">
	.st0{fill:#FFFFFF;}
	.st1{font-family:'Roboto-Regular';}
	.st2{font-size:9.6887px;}
	.st3{display:none;}
	.st4{display:inline;fill:#F3755E;}
	.st5{display:inline;}
	.st6{font-family:'Roboto-Medium';}
	.st7{font-size:80.5344px;}
	.st8{letter-spacing:-1;}
	.st9{font-size:31.3189px;}
	.st10{font-size:22.3707px;}
	.st11{clip-path:url(#SVGID_2_);fill:none;stroke:#60375D;stroke-width:17;}
	.st12{clip-path:url(#SVGID_2_);fill:none;stroke:#60375D;stroke-width:8;}
	.st13{display:inline;fill:#673A5E;}
	.st14{font-family:'Avenir-Heavy';}
	.st15{font-size:26.8448px;}
	.st16{font-family:'Roboto-Black';}
	.st17{fill:#673A5E;}
	.st18{font-size:24.6077px;}
</style>
<g id="Layer_1">
	<text transform="matrix(1 0 0 1 436.7822 44.3296)"><tspan x="0" y="0" class="st0 st1 st2">No</tspan><tspan x="12.43" y="0" class="st0 st1 st2">r</tspan><tspan x="15.94" y="0" class="st0 st1 st2">th Da</tspan><tspan x="38.47" y="0" class="st0 st1 st2">r</tspan><tspan x="41.97" y="0" class="st0 st1 st2">tmouth, MA 02747</tspan></text>
</g>
<g id="Layer_2" class="st3">
	<rect y="3" class="st4" width="1368.69" height="233.92"/>
	<text transform="matrix(1 0 0 1 74.5508 137.8672)" class="st5"><tspan x="0" y="0" class="st0 st6 st7">Rachel </tspan><tspan x="264.53" y="0" class="st0 st6 st7 st8">W</tspan><tspan x="334.18" y="0" class="st0 st6 st7">arren</tspan></text>
	<text transform="matrix(1 0 0 1 81.2637 177.1226)" class="st5"><tspan x="0" y="0" class="st0 st6 st9">G</tspan><tspan x="21.32" y="0" class="st0 st6 st9">r</tspan><tspan x="31.89" y="0" class="st0 st6 st9">aphic Designer and Illust</tspan><tspan x="376.92" y="0" class="st0 st6 st9">r</tspan><tspan x="387.52" y="0" class="st0 st6 st9">a</tspan><tspan x="404.46" y="0" class="st0 st6 st9">t</tspan><tspan x="414.44" y="0" class="st0 st6 st9">or</tspan></text>
	<text transform="matrix(1 0 0 1 1008.3027 97.0547)" class="st5"><tspan x="0" y="0" class="st0 st1 st10">No</tspan><tspan x="28.71" y="0" class="st0 st1 st10">r</tspan><tspan x="36.81" y="0" class="st0 st1 st10">th Da</tspan><tspan x="88.82" y="0" class="st0 st1 st10">r</tspan><tspan x="96.9" y="0" class="st0 st1 st10">tmouth, MA 02747</tspan></text>
	<text transform="matrix(1 0 0 1 1058.0781 158.2388)" class="st5"><tspan x="0" y="0" class="st0 st1 st10">r</tspan><tspan x="7.75" y="0" class="st0 st1 st10">warren2@umassd.edu</tspan></text>
	<text transform="matrix(1 0 0 1 1128.9453 128.5962)" class="st5"><tspan x="0" y="0" class="st0 st1 st10">(</tspan><tspan x="6.77" y="0" class="st0 st1 st10">978</tspan><tspan x="41.77" y="0" class="st0 st1 st10">)</tspan><tspan x="48.68" y="0" class="st0 st1 st10"> </tspan><tspan x="53.32" y="0" class="st0 st1 st10">- </tspan><tspan x="63.29" y="0" class="st0 st1 st10">604</tspan><tspan x="98.29" y="0" class="st0 st1 st10"> - </tspan><tspan x="112.92" y="0" class="st0 st1 st10">212</tspan><tspan x="147.92" y="0" class="st0 st1 st10">3</tspan></text>
	<g class="st5">
		<defs>
			<rect id="SVGID_1_" x="-18.71" y="-21.46" width="1463.71" height="1943.79"/>
		</defs>
		<clipPath id="SVGID_2_">
			<use xlink:href="#SVGID_1_"  style="overflow:visible;"/>
		</clipPath>
		<line class="st11" x1="-2" y1="7.15" x2="1370.51" y2="7.15"/>
		<line class="st12" x1="1.42" y1="1755.89" x2="1370.51" y2="1755.89"/>
	</g>
</g>
<g id="Layer_3" class="st3">
	<rect x="1.42" y="1677.37" class="st4" width="1423.44" height="242.72"/>
	<text transform="matrix(1 0 0 1 1120.3154 381.8315)" class="st13 st14 st15"> </text>
	<text transform="matrix(1 0 0 1 328.2339 719.0596)" class="st13 st16 st15">JOB EXPERIENCE </text>
	<text transform="matrix(1 0 0 1 328.2339 767.8359)" class="st5"><tspan x="0" y="0" class="st17 st6 st15">P</tspan><tspan x="17.16" y="0" class="st17 st6 st15">r</tspan><tspan x="26.14" y="0" class="st17 st6 st15">oduction </tspan><tspan x="138.22" y="0" class="st17 st6 st15">Z</tspan><tspan x="154.17" y="0" class="st17 st6 st15">one Leader | </tspan><tspan x="308.03" y="0" class="st17 st6 st15">P</tspan><tspan x="325.05" y="0" class="st17 st6 st15">ane</tspan><tspan x="368.91" y="0" class="st17 st6 st15">r</tspan><tspan x="377.98" y="0" class="st17 st6 st15">a Bread </tspan></text>
	<text transform="matrix(1 0 0 1 328.2339 804.5127)" class="st5"><tspan x="0" y="0" class="st17 st1 st18">April 2018 – Ma</tspan><tspan x="174.69" y="0" class="st17 st1 st18">r</tspan><tspan x="182.72" y="0" class="st17 st1 st18">ch 2020</tspan></text>
	<text transform="matrix(1 0 0 1 328.2339 838.9658)" class="st5"><tspan x="0" y="0" class="st17 st1 st10">As pa</tspan><tspan x="56.39" y="0" class="st17 st1 st10">r</tspan><tspan x="64.47" y="0" class="st17 st1 st10">t of the management team, I p</tspan><tspan x="362.77" y="0" class="st17 st1 st10">r</tspan><tspan x="370.05" y="0" class="st17 st1 st10">o</tspan><tspan x="382.65" y="0" class="st17 st1 st10">vide guidance and instruction </tspan></text>
	<text transform="matrix(1 0 0 1 328.2339 865.8115)" class="st5"><tspan x="0" y="0" class="st17 st1 st10">t</tspan><tspan x="7.11" y="0" class="st17 st1 st10">o associates, as well as manage and maintain the quality of p</tspan><tspan x="615.23" y="0" class="st17 st1 st10">r</tspan><tspan x="622.4" y="0" class="st17 st1 st10">oducts </tspan></text>
	<text transform="matrix(1 0 0 1 1024.5889 921.7373)" class="st13 st1 st10"> </text>
	<text transform="matrix(1 0 0 1 328.2339 891.3135)" class="st5"><tspan x="0" y="0" class="st17 st1 st10">and se</tspan><tspan x="66.05" y="0" class="st17 st1 st10">r</tspan><tspan x="73.78" y="0" class="st17 st1 st10">vices p</tspan><tspan x="143.23" y="0" class="st17 st1 st10">r</tspan><tspan x="150.57" y="0" class="st17 st1 st10">o</tspan><tspan x="163.18" y="0" class="st17 st1 st10">vided </tspan><tspan x="222.06" y="0" class="st17 st1 st10">t</tspan><tspan x="229.15" y="0" class="st17 st1 st10">o cus</tspan><tspan x="283.02" y="0" class="st17 st1 st10">t</tspan><tspan x="290.13" y="0" class="st17 st1 st10">omers.  </tspan></text>
	<text transform="matrix(1 0 0 1 328.2339 962.4531)" class="st5"><tspan x="0" y="0" class="st17 st6 st15">Assistant Catering Coordina</tspan><tspan x="337.77" y="0" class="st17 st6 st15">t</tspan><tspan x="346.3" y="0" class="st17 st6 st15">or | </tspan><tspan x="391.13" y="0" class="st17 st6 st15">P</tspan><tspan x="408.15" y="0" class="st17 st6 st15">ane</tspan><tspan x="452.01" y="0" class="st17 st6 st15">r</tspan><tspan x="461.07" y="0" class="st17 st6 st15">a Bread </tspan></text>
	<text transform="matrix(1 0 0 1 328.2339 1001.376)" class="st13 st18" style="font-family:'Avenir-Medium';">May 2019 – September 2019 </text>
	<text transform="matrix(1 0 0 1 328.2339 1038.0645)" class="st5"><tspan x="0" y="0" class="st17 st1 st10">I was responsible for catering </tspan><tspan x="298.72" y="0" class="st17 st1 st10">e</tspan><tspan x="310.37" y="0" class="st17 st1 st10">vents and business meetings for the </tspan></text>
	<text transform="matrix(1 0 0 1 328.2339 1064.9092)" class="st5"><tspan x="0" y="0" class="st17 st1 st10">summer of 2019. I would prepare, deliver and present large meals </tspan><tspan x="654.49" y="0" class="st17 st1 st10">t</tspan><tspan x="661.47" y="0" class="st17 st1 st10">o </tspan></text>
	<path class="st13" d="M329.23,1086.63c0-1.16,0.23-2.2,0.68-3.12c0.46-0.92,1.09-1.64,1.9-2.14c0.81-0.5,1.74-0.75,2.78-0.75
		c1.61,0,2.91,0.56,3.91,1.67c0.99,1.11,1.49,2.6,1.49,4.45v0.14c0,1.15-0.22,2.18-0.66,3.1c-0.44,0.91-1.07,1.63-1.89,2.14
		c-0.82,0.51-1.76,0.76-2.82,0.76c-1.6,0-2.9-0.56-3.89-1.67c-0.99-1.11-1.49-2.59-1.49-4.42V1086.63z M331.26,1086.87
		c0,1.31,0.3,2.36,0.91,3.16c0.61,0.79,1.42,1.19,2.44,1.19c1.03,0,1.84-0.4,2.45-1.21c0.6-0.8,0.91-1.93,0.91-3.38
		c0-1.3-0.31-2.35-0.92-3.15c-0.62-0.8-1.43-1.21-2.45-1.21c-1,0-1.8,0.4-2.41,1.19C331.57,1084.26,331.26,1085.39,331.26,1086.87z
		 M343.51,1092.65v-10.26h-1.87v-1.56h1.87v-1.21c0-1.27,0.34-2.25,1.02-2.94c0.68-0.69,1.63-1.04,2.87-1.04
		c0.47,0,0.93,0.06,1.39,0.18l-0.11,1.63c-0.34-0.07-0.71-0.1-1.09-0.1c-0.66,0-1.16,0.19-1.52,0.58c-0.36,0.38-0.54,0.93-0.54,1.65
		v1.25h2.52v1.56h-2.52v10.26H343.51z M350.96,1092.65v-10.26h-1.87v-1.56h1.87v-1.01c0-1.32,0.38-2.34,1.13-3.08
		c0.75-0.74,1.82-1.1,3.2-1.1c0.82,0,1.85,0.22,3.09,0.67l-0.34,1.7c-0.91-0.36-1.78-0.55-2.6-0.55c-0.87,0-1.49,0.19-1.87,0.58
		c-0.38,0.39-0.57,0.97-0.57,1.75v1.03h2.41v1.56h-2.41v10.26H350.96z M359.38,1092.65h-2.03v-11.82h2.03V1092.65z M367.41,1091.22
		c0.72,0,1.35-0.22,1.89-0.66c0.54-0.44,0.84-0.98,0.9-1.64h1.91c-0.04,0.68-0.27,1.32-0.7,1.93c-0.43,0.61-1,1.1-1.72,1.46
		c-0.72,0.36-1.48,0.55-2.28,0.55c-1.61,0-2.89-0.54-3.84-1.61c-0.95-1.07-1.43-2.54-1.43-4.41v-0.34c0-1.15,0.21-2.17,0.63-3.07
		c0.42-0.9,1.03-1.59,1.82-2.09c0.79-0.5,1.72-0.74,2.8-0.74c1.33,0,2.43,0.4,3.3,1.19c0.88,0.79,1.35,1.82,1.4,3.09h-1.91
		c-0.06-0.76-0.35-1.39-0.87-1.88c-0.52-0.49-1.16-0.74-1.93-0.74c-1.03,0-1.82,0.37-2.39,1.11c-0.56,0.74-0.85,1.81-0.85,3.21v0.38
		c0,1.36,0.28,2.41,0.84,3.15C365.57,1090.85,366.37,1091.22,367.41,1091.22z M383.73,1090.59c-0.99,1.52-2.48,2.28-4.46,2.28
		c-1.6,0-2.91-0.53-3.91-1.58c-1-1.05-1.51-2.46-1.51-4.22v-0.37c0-1.17,0.22-2.22,0.67-3.14c0.45-0.92,1.07-1.64,1.88-2.16
		c0.8-0.52,1.68-0.78,2.62-0.78c1.54,0,2.73,0.51,3.58,1.52c0.85,1.01,1.28,2.46,1.28,4.35v0.84h-8.01
		c0.03,1.17,0.37,2.11,1.02,2.82c0.65,0.72,1.48,1.08,2.49,1.08c0.71,0,1.32-0.15,1.81-0.44c0.5-0.29,0.93-0.68,1.3-1.16
		L383.73,1090.59L383.73,1090.59z M379.02,1082.27c-0.82,0-1.5,0.3-2.05,0.89c-0.55,0.59-0.9,1.43-1.03,2.5h5.92v-0.15
		c-0.06-1.03-0.34-1.82-0.83-2.39C380.54,1082.56,379.87,1082.27,379.02,1082.27z M393.11,1089.52c0-0.55-0.21-0.97-0.62-1.27
		c-0.41-0.3-1.13-0.56-2.15-0.78c-1.02-0.22-1.84-0.48-2.44-0.79c-0.6-0.31-1.05-0.67-1.33-1.09c-0.29-0.42-0.43-0.92-0.43-1.51
		c0-0.97,0.41-1.79,1.23-2.46c0.82-0.67,1.87-1,3.14-1c1.34,0,2.43,0.35,3.26,1.04c0.83,0.69,1.25,1.58,1.25,2.65h-2.03
		c0-0.55-0.23-1.03-0.7-1.43c-0.47-0.4-1.06-0.6-1.77-0.6c-0.74,0-1.31,0.16-1.73,0.48c-0.42,0.32-0.62,0.74-0.62,1.26
		c0,0.49,0.19,0.86,0.58,1.1c0.39,0.25,1.08,0.48,2.09,0.71c1.01,0.23,1.83,0.5,2.45,0.81c0.63,0.31,1.09,0.69,1.39,1.13
		c0.3,0.44,0.45,0.98,0.45,1.61c0,1.06-0.42,1.9-1.27,2.54c-0.84,0.64-1.94,0.96-3.29,0.96c-0.95,0-1.78-0.17-2.51-0.5
		c-0.73-0.33-1.3-0.8-1.71-1.4c-0.41-0.6-0.62-1.25-0.62-1.95h2.02c0.04,0.68,0.31,1.21,0.81,1.61c0.51,0.4,1.17,0.6,2,0.6
		c0.76,0,1.38-0.15,1.84-0.46C392.88,1090.45,393.11,1090.03,393.11,1089.52z M410.62,1092.65c-0.12-0.23-0.21-0.65-0.28-1.25
		c-0.94,0.98-2.06,1.46-3.36,1.46c-1.17,0-2.12-0.33-2.87-0.99c-0.75-0.66-1.12-1.49-1.12-2.51c0-1.23,0.47-2.19,1.4-2.87
		c0.94-0.68,2.25-1.02,3.95-1.02h1.97v-0.93c0-0.71-0.21-1.27-0.63-1.69c-0.42-0.42-1.05-0.63-1.87-0.63
		c-0.72,0-1.33,0.18-1.81,0.55c-0.49,0.36-0.73,0.8-0.73,1.32h-2.03c0-0.59,0.21-1.16,0.63-1.71c0.42-0.55,0.99-0.98,1.7-1.31
		c0.72-0.32,1.51-0.48,2.36-0.48c1.36,0,2.43,0.34,3.2,1.02c0.77,0.68,1.17,1.62,1.2,2.81v5.44c0,1.09,0.14,1.95,0.42,2.59v0.17
		H410.62z M407.26,1091.11c0.63,0,1.23-0.16,1.8-0.49c0.57-0.33,0.98-0.75,1.23-1.28v-2.42h-1.58c-2.48,0-3.71,0.72-3.71,2.17
		c0,0.63,0.21,1.13,0.63,1.49C406.06,1090.93,406.6,1091.11,407.26,1091.11z M417.4,1080.83l0.07,1.49c0.9-1.14,2.08-1.7,3.54-1.7
		c2.5,0,3.76,1.41,3.78,4.23v7.81h-2.02v-7.82c-0.01-0.85-0.2-1.48-0.58-1.89c-0.38-0.41-0.98-0.61-1.79-0.61
		c-0.66,0-1.23,0.17-1.73,0.52c-0.5,0.35-0.88,0.81-1.16,1.38v8.42h-2.02v-11.82H417.4z M427.35,1086.64c0-1.81,0.43-3.27,1.29-4.37
		c0.86-1.1,1.98-1.65,3.38-1.65c1.38,0,2.48,0.47,3.29,1.42v-6.16h2.02v16.78h-1.86l-0.1-1.27c-0.81,0.99-1.93,1.49-3.38,1.49
		c-1.37,0-2.49-0.56-3.35-1.68c-0.86-1.12-1.29-2.59-1.29-4.39V1086.64z M429.37,1086.87c0,1.34,0.28,2.39,0.83,3.15
		c0.55,0.76,1.32,1.14,2.29,1.14c1.28,0,2.22-0.58,2.81-1.73V1084c-0.6-1.11-1.53-1.67-2.79-1.67c-0.99,0-1.76,0.38-2.32,1.15
		C429.64,1084.24,429.37,1085.37,429.37,1086.87z M450.74,1091.22c0.72,0,1.35-0.22,1.89-0.66c0.54-0.44,0.84-0.98,0.9-1.64h1.91
		c-0.04,0.68-0.27,1.32-0.7,1.93c-0.43,0.61-1,1.1-1.72,1.46c-0.72,0.36-1.48,0.55-2.28,0.55c-1.61,0-2.89-0.54-3.84-1.61
		c-0.95-1.07-1.43-2.54-1.43-4.41v-0.34c0-1.15,0.21-2.17,0.63-3.07c0.42-0.9,1.03-1.59,1.82-2.09c0.79-0.5,1.72-0.74,2.8-0.74
		c1.33,0,2.43,0.4,3.3,1.19c0.88,0.79,1.35,1.82,1.4,3.09h-1.91c-0.06-0.76-0.35-1.39-0.87-1.88c-0.52-0.49-1.16-0.74-1.93-0.74
		c-1.03,0-1.82,0.37-2.39,1.11c-0.56,0.74-0.85,1.81-0.85,3.21v0.38c0,1.36,0.28,2.41,0.84,3.15
		C448.9,1090.85,449.7,1091.22,450.74,1091.22z M459.9,1092.65h-2.02v-16.78h2.02V1092.65z M463.15,1077.7c0-0.33,0.1-0.6,0.3-0.83
		c0.2-0.23,0.5-0.34,0.89-0.34c0.39,0,0.69,0.11,0.9,0.34c0.2,0.23,0.31,0.5,0.31,0.83s-0.1,0.6-0.31,0.82
		c-0.2,0.22-0.5,0.33-0.9,0.33c-0.39,0-0.69-0.11-0.89-0.33C463.25,1078.3,463.15,1078.02,463.15,1077.7z M465.33,1092.65h-2.02
		v-11.82h2.02V1092.65z M477.94,1090.59c-0.99,1.52-2.48,2.28-4.46,2.28c-1.6,0-2.91-0.53-3.91-1.58c-1-1.05-1.51-2.46-1.51-4.22
		v-0.37c0-1.17,0.22-2.22,0.67-3.14c0.45-0.92,1.07-1.64,1.88-2.16c0.8-0.52,1.68-0.78,2.62-0.78c1.54,0,2.73,0.51,3.58,1.52
		c0.85,1.01,1.28,2.46,1.28,4.35v0.84h-8.01c0.03,1.17,0.37,2.11,1.02,2.82c0.65,0.72,1.48,1.08,2.49,1.08
		c0.71,0,1.32-0.15,1.81-0.44c0.5-0.29,0.93-0.68,1.3-1.16L477.94,1090.59L477.94,1090.59z M473.23,1082.27
		c-0.82,0-1.5,0.3-2.05,0.89c-0.55,0.59-0.9,1.43-1.03,2.5h5.92v-0.15c-0.06-1.03-0.34-1.82-0.83-2.39
		C474.74,1082.56,474.07,1082.27,473.23,1082.27z M482.34,1080.83l0.07,1.49c0.9-1.14,2.08-1.7,3.54-1.7c2.5,0,3.76,1.41,3.78,4.23
		v7.81h-2.02v-7.82c-0.01-0.85-0.2-1.48-0.58-1.89c-0.38-0.41-0.98-0.61-1.79-0.61c-0.66,0-1.23,0.17-1.73,0.52
		c-0.5,0.35-0.88,0.81-1.16,1.38v8.42h-2.02v-11.82H482.34z M495.52,1077.97v2.86h2.21v1.56h-2.21v7.34c0,0.47,0.1,0.83,0.29,1.07
		c0.2,0.24,0.53,0.36,1,0.36c0.23,0,0.55-0.04,0.96-0.13v1.63c-0.53,0.14-1.05,0.22-1.55,0.22c-0.9,0-1.58-0.27-2.04-0.82
		s-0.69-1.32-0.69-2.33v-7.33h-2.15v-1.56h2.15v-2.86H495.52z M506.98,1089.52c0-0.55-0.21-0.97-0.62-1.27
		c-0.41-0.3-1.13-0.56-2.15-0.78c-1.02-0.22-1.84-0.48-2.44-0.79c-0.6-0.31-1.05-0.67-1.33-1.09c-0.29-0.42-0.43-0.92-0.43-1.51
		c0-0.97,0.41-1.79,1.23-2.46c0.82-0.67,1.87-1,3.14-1c1.34,0,2.43,0.35,3.26,1.04c0.83,0.69,1.25,1.58,1.25,2.65h-2.03
		c0-0.55-0.23-1.03-0.7-1.43c-0.47-0.4-1.06-0.6-1.78-0.6c-0.74,0-1.31,0.16-1.73,0.48c-0.42,0.32-0.62,0.74-0.62,1.26
		c0,0.49,0.19,0.86,0.58,1.1c0.39,0.25,1.08,0.48,2.09,0.71c1.01,0.23,1.83,0.5,2.45,0.81c0.63,0.31,1.09,0.69,1.39,1.13
		c0.3,0.44,0.45,0.98,0.45,1.61c0,1.06-0.42,1.9-1.27,2.54c-0.84,0.64-1.94,0.96-3.29,0.96c-0.95,0-1.78-0.17-2.51-0.5
		c-0.73-0.33-1.3-0.8-1.71-1.4c-0.41-0.6-0.62-1.25-0.62-1.95h2.02c0.04,0.68,0.31,1.21,0.81,1.61c0.51,0.4,1.17,0.6,2,0.6
		c0.76,0,1.38-0.15,1.84-0.46C506.74,1090.45,506.98,1090.03,506.98,1089.52z M524.48,1092.65c-0.12-0.23-0.21-0.65-0.28-1.25
		c-0.94,0.98-2.06,1.46-3.36,1.46c-1.17,0-2.12-0.33-2.87-0.99c-0.75-0.66-1.12-1.49-1.12-2.51c0-1.23,0.47-2.19,1.4-2.87
		c0.94-0.68,2.25-1.02,3.95-1.02h1.97v-0.93c0-0.71-0.21-1.27-0.63-1.69c-0.42-0.42-1.05-0.63-1.87-0.63
		c-0.72,0-1.33,0.18-1.81,0.55c-0.49,0.36-0.73,0.8-0.73,1.32h-2.03c0-0.59,0.21-1.16,0.63-1.71c0.42-0.55,0.99-0.98,1.7-1.31
		c0.72-0.32,1.51-0.48,2.36-0.48c1.36,0,2.43,0.34,3.2,1.02c0.77,0.68,1.17,1.62,1.2,2.81v5.44c0,1.09,0.14,1.95,0.42,2.59v0.17
		H524.48z M521.13,1091.11c0.63,0,1.23-0.16,1.8-0.49c0.57-0.33,0.98-0.75,1.23-1.28v-2.42h-1.58c-2.48,0-3.71,0.72-3.71,2.17
		c0,0.63,0.21,1.13,0.63,1.49C519.92,1090.93,520.47,1091.11,521.13,1091.11z M532.1,1077.97v2.86h2.21v1.56h-2.21v7.34
		c0,0.47,0.1,0.83,0.29,1.07c0.2,0.24,0.53,0.36,1,0.36c0.23,0,0.55-0.04,0.96-0.13v1.63c-0.53,0.14-1.05,0.22-1.55,0.22
		c-0.9,0-1.58-0.27-2.04-0.82c-0.46-0.55-0.69-1.32-0.69-2.33v-7.33h-2.15v-1.56h2.15v-2.86H532.1z M544.96,1077.97v2.86h2.21v1.56
		h-2.21v7.34c0,0.47,0.1,0.83,0.29,1.07c0.2,0.24,0.53,0.36,1,0.36c0.23,0,0.55-0.04,0.96-0.13v1.63c-0.53,0.14-1.05,0.22-1.55,0.22
		c-0.9,0-1.58-0.27-2.04-0.82c-0.46-0.55-0.69-1.32-0.69-2.33v-7.33h-2.15v-1.56h2.15v-2.86H544.96z M551.55,1082.26
		c0.9-1.1,2.06-1.65,3.5-1.65c2.5,0,3.76,1.41,3.78,4.23v7.81h-2.02v-7.82c-0.01-0.85-0.2-1.48-0.58-1.89
		c-0.38-0.41-0.98-0.61-1.79-0.61c-0.66,0-1.23,0.17-1.73,0.52c-0.5,0.35-0.88,0.81-1.16,1.38v8.42h-2.02v-16.78h2.02V1082.26z
		 M571.22,1090.59c-0.99,1.52-2.48,2.28-4.46,2.28c-1.6,0-2.91-0.53-3.91-1.58c-1-1.05-1.51-2.46-1.51-4.22v-0.37
		c0-1.17,0.22-2.22,0.67-3.14c0.45-0.92,1.07-1.64,1.88-2.16c0.8-0.52,1.68-0.78,2.62-0.78c1.54,0,2.73,0.51,3.58,1.52
		c0.85,1.01,1.28,2.46,1.28,4.35v0.84h-8.01c0.03,1.17,0.37,2.11,1.02,2.82c0.65,0.72,1.48,1.08,2.48,1.08
		c0.71,0,1.32-0.15,1.81-0.44c0.5-0.29,0.93-0.68,1.3-1.16L571.22,1090.59L571.22,1090.59z M566.51,1082.27
		c-0.82,0-1.5,0.3-2.05,0.89c-0.55,0.59-0.9,1.43-1.03,2.5h5.92v-0.15c-0.06-1.03-0.34-1.82-0.83-2.39
		C568.03,1082.56,567.36,1082.27,566.51,1082.27z M582.01,1077.97v2.86h2.21v1.56h-2.21v7.34c0,0.47,0.1,0.83,0.29,1.07
		c0.2,0.24,0.53,0.36,1,0.36c0.23,0,0.55-0.04,0.96-0.13v1.63c-0.53,0.14-1.05,0.22-1.55,0.22c-0.9,0-1.58-0.27-2.04-0.82
		c-0.46-0.55-0.69-1.32-0.69-2.33v-7.33h-2.15v-1.56h2.15v-2.86H582.01z M586.59,1077.7c0-0.33,0.1-0.6,0.3-0.83
		c0.2-0.23,0.5-0.34,0.89-0.34s0.69,0.11,0.9,0.34c0.2,0.23,0.31,0.5,0.31,0.83s-0.1,0.6-0.31,0.82c-0.2,0.22-0.5,0.33-0.9,0.33
		s-0.69-0.11-0.89-0.33C586.69,1078.3,586.59,1078.02,586.59,1077.7z M588.77,1092.65h-2.02v-11.82h2.02V1092.65z M593.92,1080.83
		l0.05,1.31c0.87-1.02,2.04-1.53,3.51-1.53c1.65,0,2.78,0.63,3.38,1.9c0.39-0.57,0.9-1.03,1.53-1.38c0.63-0.35,1.37-0.52,2.23-0.52
		c2.59,0,3.91,1.37,3.95,4.12v7.92h-2.02v-7.8c0-0.84-0.19-1.48-0.58-1.9c-0.39-0.42-1.03-0.63-1.94-0.63
		c-0.75,0-1.37,0.22-1.87,0.67c-0.5,0.45-0.78,1.05-0.86,1.81v7.84h-2.03v-7.74c0-1.72-0.84-2.58-2.52-2.58
		c-1.33,0-2.23,0.56-2.72,1.69v8.63H592v-11.82H593.92z M620.97,1090.59c-0.99,1.52-2.48,2.28-4.46,2.28c-1.6,0-2.91-0.53-3.91-1.58
		c-1-1.05-1.51-2.46-1.51-4.22v-0.37c0-1.17,0.22-2.22,0.67-3.14c0.45-0.92,1.07-1.64,1.88-2.16c0.8-0.52,1.68-0.78,2.62-0.78
		c1.54,0,2.73,0.51,3.58,1.52c0.85,1.01,1.28,2.46,1.28,4.35v0.84h-8.01c0.03,1.17,0.37,2.11,1.02,2.82
		c0.65,0.72,1.48,1.08,2.48,1.08c0.71,0,1.32-0.15,1.81-0.44c0.5-0.29,0.93-0.68,1.3-1.16L620.97,1090.59L620.97,1090.59z
		 M616.27,1082.27c-0.82,0-1.5,0.3-2.05,0.89c-0.55,0.59-0.9,1.43-1.03,2.5h5.92v-0.15c-0.06-1.03-0.34-1.82-0.83-2.39
		C617.78,1082.56,617.11,1082.27,616.27,1082.27z M631.76,1077.97v2.86h2.21v1.56h-2.21v7.34c0,0.47,0.1,0.83,0.29,1.07
		c0.2,0.24,0.53,0.36,1,0.36c0.23,0,0.55-0.04,0.96-0.13v1.63c-0.53,0.14-1.05,0.22-1.55,0.22c-0.9,0-1.58-0.27-2.04-0.82
		c-0.46-0.55-0.69-1.32-0.69-2.33v-7.33h-2.15v-1.56h2.15v-2.86H631.76z M638.35,1082.26c0.9-1.1,2.06-1.65,3.5-1.65
		c2.5,0,3.76,1.41,3.78,4.23v7.81h-2.02v-7.82c-0.01-0.85-0.2-1.48-0.58-1.89c-0.38-0.41-0.98-0.61-1.79-0.61
		c-0.66,0-1.23,0.17-1.73,0.52c-0.5,0.35-0.88,0.81-1.16,1.38v8.42h-2.02v-16.78h2.02V1082.26z M658.02,1090.59
		c-0.99,1.52-2.48,2.28-4.46,2.28c-1.6,0-2.91-0.53-3.91-1.58c-1-1.05-1.51-2.46-1.51-4.22v-0.37c0-1.17,0.22-2.22,0.67-3.14
		c0.45-0.92,1.07-1.64,1.88-2.16c0.8-0.52,1.68-0.78,2.62-0.78c1.54,0,2.73,0.51,3.58,1.52c0.85,1.01,1.28,2.46,1.28,4.35v0.84
		h-8.01c0.03,1.17,0.37,2.11,1.02,2.82c0.65,0.72,1.48,1.08,2.49,1.08c0.71,0,1.32-0.15,1.81-0.44c0.5-0.29,0.93-0.68,1.3-1.16
		L658.02,1090.59L658.02,1090.59z M653.31,1082.27c-0.82,0-1.5,0.3-2.05,0.89c-0.55,0.59-0.9,1.43-1.03,2.5h5.92v-0.15
		c-0.06-1.03-0.34-1.82-0.83-2.39C654.83,1082.56,654.16,1082.27,653.31,1082.27z M664.38,1089.69l2.75-8.86h2.16l-4.75,13.64
		c-0.74,1.97-1.9,2.95-3.51,2.95l-0.38-0.03l-0.75-0.14v-1.64l0.55,0.04c0.68,0,1.22-0.14,1.6-0.42c0.38-0.28,0.7-0.78,0.94-1.52
		l0.45-1.2l-4.22-11.69h2.21L664.38,1089.69z M678.66,1082.26c0.9-1.1,2.06-1.65,3.5-1.65c2.5,0,3.76,1.41,3.78,4.23v7.81h-2.02
		v-7.82c-0.01-0.85-0.2-1.48-0.58-1.89c-0.38-0.41-0.98-0.61-1.79-0.61c-0.66,0-1.23,0.17-1.73,0.52c-0.5,0.35-0.88,0.81-1.16,1.38
		v8.42h-2.02v-16.78h2.02V1082.26z M696.27,1092.65c-0.12-0.23-0.21-0.65-0.28-1.25c-0.94,0.98-2.06,1.46-3.36,1.46
		c-1.17,0-2.12-0.33-2.87-0.99c-0.75-0.66-1.12-1.49-1.12-2.51c0-1.23,0.47-2.19,1.4-2.87c0.94-0.68,2.25-1.02,3.95-1.02h1.97v-0.93
		c0-0.71-0.21-1.27-0.63-1.69c-0.42-0.42-1.05-0.63-1.87-0.63c-0.72,0-1.33,0.18-1.81,0.55c-0.49,0.36-0.73,0.8-0.73,1.32h-2.03
		c0-0.59,0.21-1.16,0.63-1.71c0.42-0.55,0.99-0.98,1.7-1.31c0.72-0.32,1.51-0.48,2.36-0.48c1.36,0,2.43,0.34,3.2,1.02
		c0.77,0.68,1.17,1.62,1.2,2.81v5.44c0,1.09,0.14,1.95,0.42,2.59v0.17H696.27z M692.91,1091.11c0.63,0,1.23-0.16,1.8-0.49
		c0.57-0.33,0.98-0.75,1.23-1.28v-2.42h-1.58c-2.48,0-3.71,0.72-3.71,2.17c0,0.63,0.21,1.13,0.63,1.49
		C691.71,1090.93,692.25,1091.11,692.91,1091.11z M700.65,1086.64c0-1.81,0.43-3.27,1.29-4.37c0.86-1.1,1.98-1.65,3.38-1.65
		c1.38,0,2.48,0.47,3.29,1.42v-6.16h2.02v16.78h-1.86l-0.1-1.27c-0.81,0.99-1.93,1.49-3.38,1.49c-1.37,0-2.49-0.56-3.35-1.68
		c-0.86-1.12-1.29-2.59-1.29-4.39V1086.64z M702.67,1086.87c0,1.34,0.28,2.39,0.83,3.15c0.55,0.76,1.32,1.14,2.29,1.14
		c1.28,0,2.22-0.58,2.81-1.73V1084c-0.6-1.11-1.53-1.67-2.79-1.67c-0.99,0-1.76,0.38-2.32,1.15
		C702.95,1084.24,702.67,1085.37,702.67,1086.87z M725.02,1082.64c-0.31-0.05-0.64-0.08-0.99-0.08c-1.33,0-2.22,0.56-2.7,1.69v8.39
		h-2.02v-11.82h1.97l0.03,1.37c0.66-1.06,1.6-1.58,2.82-1.58c0.39,0,0.69,0.05,0.9,0.15V1082.64z M736.23,1090.59
		c-0.99,1.52-2.48,2.28-4.46,2.28c-1.6,0-2.91-0.53-3.91-1.58c-1-1.05-1.51-2.46-1.51-4.22v-0.37c0-1.17,0.22-2.22,0.67-3.14
		c0.45-0.92,1.07-1.64,1.88-2.16c0.8-0.52,1.68-0.78,2.62-0.78c1.54,0,2.73,0.51,3.58,1.52c0.85,1.01,1.28,2.46,1.28,4.35v0.84
		h-8.01c0.03,1.17,0.37,2.11,1.02,2.82c0.65,0.72,1.48,1.08,2.49,1.08c0.71,0,1.32-0.15,1.81-0.44c0.5-0.29,0.93-0.68,1.3-1.16
		L736.23,1090.59L736.23,1090.59z M731.52,1082.27c-0.82,0-1.5,0.3-2.05,0.89c-0.55,0.59-0.9,1.43-1.03,2.5h5.92v-0.15
		c-0.06-1.03-0.34-1.82-0.83-2.39C733.03,1082.56,732.36,1082.27,731.52,1082.27z M738.23,1086.64c0-1.86,0.43-3.33,1.28-4.41
		c0.85-1.08,2-1.62,3.43-1.62c1.4,0,2.5,0.47,3.31,1.41l0.09-1.19h1.86v16.36h-2.02v-5.64c-0.82,0.87-1.9,1.31-3.26,1.31
		c-1.43,0-2.57-0.56-3.41-1.67c-0.85-1.11-1.27-2.58-1.27-4.42V1086.64z M740.25,1086.87c0,1.35,0.29,2.42,0.86,3.19
		c0.57,0.77,1.34,1.16,2.31,1.16c1.2,0,2.12-0.53,2.75-1.59v-5.79c-0.64-1.04-1.55-1.56-2.73-1.56c-0.98,0-1.75,0.39-2.33,1.16
		C740.54,1084.21,740.25,1085.36,740.25,1086.87z M758.72,1091.48c-0.79,0.92-1.94,1.39-3.46,1.39c-1.26,0-2.22-0.37-2.88-1.1
		c-0.66-0.73-0.99-1.81-1-3.25v-7.69h2.02v7.64c0,1.79,0.73,2.69,2.18,2.69c1.54,0,2.57-0.58,3.08-1.73v-8.6h2.02v11.82h-1.92
		L758.72,1091.48z M773.12,1090.59c-0.99,1.52-2.48,2.28-4.46,2.28c-1.6,0-2.91-0.53-3.91-1.58c-1-1.05-1.51-2.46-1.51-4.22v-0.37
		c0-1.17,0.22-2.22,0.67-3.14c0.45-0.92,1.07-1.64,1.88-2.16c0.8-0.52,1.68-0.78,2.62-0.78c1.54,0,2.73,0.51,3.58,1.52
		c0.85,1.01,1.28,2.46,1.28,4.35v0.84h-8.01c0.03,1.17,0.37,2.11,1.02,2.82c0.65,0.72,1.48,1.08,2.49,1.08
		c0.71,0,1.32-0.15,1.81-0.44c0.5-0.29,0.93-0.68,1.3-1.16L773.12,1090.59L773.12,1090.59z M768.41,1082.27
		c-0.82,0-1.5,0.3-2.05,0.89c-0.55,0.59-0.9,1.43-1.03,2.5h5.92v-0.15c-0.06-1.03-0.34-1.82-0.83-2.39
		C769.92,1082.56,769.25,1082.27,768.41,1082.27z M782.49,1089.52c0-0.55-0.21-0.97-0.62-1.27c-0.41-0.3-1.13-0.56-2.15-0.78
		c-1.02-0.22-1.84-0.48-2.44-0.79c-0.6-0.31-1.05-0.67-1.33-1.09c-0.29-0.42-0.43-0.92-0.43-1.51c0-0.97,0.41-1.79,1.23-2.46
		c0.82-0.67,1.87-1,3.14-1c1.34,0,2.43,0.35,3.26,1.04c0.83,0.69,1.25,1.58,1.25,2.65h-2.03c0-0.55-0.23-1.03-0.7-1.43
		c-0.47-0.4-1.06-0.6-1.77-0.6c-0.74,0-1.31,0.16-1.73,0.48c-0.42,0.32-0.62,0.74-0.62,1.26c0,0.49,0.19,0.86,0.58,1.1
		c0.39,0.25,1.08,0.48,2.09,0.71c1.01,0.23,1.83,0.5,2.45,0.81c0.63,0.31,1.09,0.69,1.39,1.13c0.3,0.44,0.45,0.98,0.45,1.61
		c0,1.06-0.42,1.9-1.27,2.54c-0.84,0.64-1.94,0.96-3.29,0.96c-0.95,0-1.78-0.17-2.51-0.5c-0.73-0.33-1.3-0.8-1.71-1.4
		c-0.41-0.6-0.62-1.25-0.62-1.95h2.02c0.04,0.68,0.31,1.21,0.81,1.61c0.51,0.4,1.17,0.6,2,0.6c0.76,0,1.38-0.15,1.84-0.46
		C782.26,1090.45,782.49,1090.03,782.49,1089.52z M789.9,1077.97v2.86h2.21v1.56h-2.21v7.34c0,0.47,0.1,0.83,0.29,1.07
		c0.2,0.24,0.53,0.36,1,0.36c0.23,0,0.55-0.04,0.96-0.13v1.63c-0.53,0.14-1.05,0.22-1.55,0.22c-0.9,0-1.58-0.27-2.04-0.82
		c-0.46-0.55-0.69-1.32-0.69-2.33v-7.33h-2.15v-1.56h2.15v-2.86H789.9z M803.83,1090.59c-0.99,1.52-2.48,2.28-4.46,2.28
		c-1.6,0-2.91-0.53-3.91-1.58c-1-1.05-1.51-2.46-1.51-4.22v-0.37c0-1.17,0.22-2.22,0.67-3.14c0.45-0.92,1.07-1.64,1.88-2.16
		c0.8-0.52,1.68-0.78,2.62-0.78c1.54,0,2.73,0.51,3.58,1.52c0.85,1.01,1.28,2.46,1.28,4.35v0.84h-8.01
		c0.03,1.17,0.37,2.11,1.02,2.82c0.65,0.72,1.48,1.08,2.48,1.08c0.71,0,1.32-0.15,1.81-0.44c0.5-0.29,0.93-0.68,1.3-1.16
		L803.83,1090.59L803.83,1090.59z M799.12,1082.27c-0.82,0-1.5,0.3-2.05,0.89c-0.55,0.59-0.9,1.43-1.03,2.5h5.92v-0.15
		c-0.06-1.03-0.34-1.82-0.83-2.39C800.64,1082.56,799.97,1082.27,799.12,1082.27z M805.83,1086.64c0-1.81,0.43-3.27,1.29-4.37
		c0.86-1.1,1.98-1.65,3.38-1.65c1.38,0,2.48,0.47,3.29,1.42v-6.16h2.02v16.78h-1.86l-0.1-1.27c-0.81,0.99-1.93,1.49-3.38,1.49
		c-1.37,0-2.49-0.56-3.35-1.68c-0.86-1.12-1.29-2.59-1.29-4.39V1086.64z M807.86,1086.87c0,1.34,0.28,2.39,0.83,3.15
		c0.55,0.76,1.32,1.14,2.29,1.14c1.28,0,2.22-0.58,2.81-1.73V1084c-0.6-1.11-1.53-1.67-2.79-1.67c-0.99,0-1.76,0.38-2.32,1.15
		C808.13,1084.24,807.86,1085.37,807.86,1086.87z M818.99,1091.59c0-0.35,0.1-0.64,0.31-0.87c0.21-0.23,0.52-0.35,0.93-0.35
		c0.42,0,0.73,0.12,0.94,0.35c0.21,0.23,0.32,0.52,0.32,0.87c0,0.34-0.11,0.62-0.32,0.84c-0.21,0.23-0.53,0.34-0.94,0.34
		c-0.42,0-0.73-0.11-0.93-0.34C819.09,1092.21,818.99,1091.93,818.99,1091.59z"/>
	<text transform="matrix(1 0 0 1 823.1201 1092.6475)" class="st13 st1 st15">  </text>
	<text transform="matrix(1 0 0 1 328.2354 1168.2705)" class="st5"><tspan x="0" y="0" class="st17 st6 st15">Bi</tspan><tspan x="23.79" y="0" class="st17 st6 st15">r</tspan><tspan x="33.87" y="0" class="st17 st6 st15">thday </tspan><tspan x="107.13" y="0" class="st17 st6 st15">P</tspan><tspan x="124.16" y="0" class="st17 st6 st15">a</tspan><tspan x="138.68" y="0" class="st17 st6 st15">r</tspan><tspan x="148.76" y="0" class="st17 st6 st15">ty Host and Cashier | Chuck E. Chees</tspan><tspan x="590.72" y="0" class="st17 st6 st15">e</tspan><tspan x="604.32" y="0" class="st17 st6 st15" style="letter-spacing:-3;">’</tspan><tspan x="607.1" y="0" class="st17 st6 st15">s </tspan></text>
	<text transform="matrix(1 0 0 1 328.2339 1209.4258)" class="st5"><tspan x="0" y="0" class="st17 st1 st18">April 2016 – N</tspan><tspan x="157.37" y="0" class="st17 st1 st18">o</tspan><tspan x="171.15" y="0" class="st17 st1 st18">vember 2017 </tspan></text>
	<text transform="matrix(1 0 0 1 328.2339 1250.585)" class="st5"><tspan x="0" y="0" class="st17 st1 st10">Along with completing food and retail t</tspan><tspan x="384.4" y="0" class="st17 st1 st10">r</tspan><tspan x="391.45" y="0" class="st17 st1 st10">ansactions, I also had the </tspan></text>
	<text transform="matrix(1 0 0 1 328.2339 1282.7998)" class="st5"><tspan x="0" y="0" class="st17 st1 st10">responsibility </tspan><tspan x="137.84" y="0" class="st17 st1 st10">t</tspan><tspan x="144.88" y="0" class="st17 st1 st10">o se</tspan><tspan x="186.56" y="0" class="st17 st1 st10">r</tspan><tspan x="194.31" y="0" class="st17 st1 st10">ve, organize and host s</tspan><tspan x="421.88" y="0" class="st17 st1 st10">e</tspan><tspan x="433.53" y="0" class="st17 st1 st10">ve</tspan><tspan x="456.22" y="0" class="st17 st1 st10">r</tspan><tspan x="463.37" y="0" class="st17 st1 st10">al bi</tspan><tspan x="504.48" y="0" class="st17 st1 st10">r</tspan><tspan x="512.56" y="0" class="st17 st1 st10">thday pa</tspan><tspan x="597.82" y="0" class="st17 st1 st10">r</tspan><tspan x="605.9" y="0" class="st17 st1 st10">ties a day. </tspan></text>
	<text transform="matrix(1 0 0 1 1040.4814 1421.498)" class="st13 st1 st15">   </text>
	<text transform="matrix(1 0 0 1 328.2339 1366.5742)" class="st5"><tspan x="0" y="0" class="st17 st16 st15">SKILLS AND </tspan><tspan x="155.84" y="0" class="st17 st16 st15">A</tspan><tspan x="173.64" y="0" class="st17 st16 st15">W</tspan><tspan x="196.41" y="0" class="st17 st16 st15">ARDS</tspan></text>
	<text transform="matrix(1 0 0 1 328.2339 1416.6885)" class="st13 st1 st10">– Adobe InDesign</text>
	<text transform="matrix(1 0 0 1 328.2339 1454.7207)" class="st5"><tspan x="0" y="0" class="st17 st1 st10">– Adobe Illust</tspan><tspan x="138.24" y="0" class="st17 st1 st10">r</tspan><tspan x="145.37" y="0" class="st17 st1 st10">a</tspan><tspan x="157.53" y="0" class="st17 st1 st10">t</tspan><tspan x="164.64" y="0" class="st17 st1 st10">or</tspan></text>
	<text transform="matrix(1 0 0 1 328.2339 1492.75)" class="st5"><tspan x="0" y="0" class="st17 st1 st10">– Adobe Pho</tspan><tspan x="129.32" y="0" class="st17 st1 st10">t</tspan><tspan x="136.43" y="0" class="st17 st1 st10">oshop</tspan></text>
	<text transform="matrix(1 0 0 1 328.2339 1530.7803)" class="st13 st1 st10">– Adobe XD</text>
	<text transform="matrix(1 0 0 1 328.2339 1568.8096)" class="st13 st1 st10">– Adobe Premiere </text>
	<path class="st13" d="M710.96,1408.75h-10.95v-1.65h10.95V1408.75z M732.55,1408.42c0,1.56-0.26,2.92-0.79,4.08
		c-0.52,1.16-1.27,2.05-2.23,2.66s-2.08,0.92-3.36,0.92c-1.25,0-2.36-0.31-3.33-0.92c-0.97-0.62-1.72-1.49-2.26-2.63
		c-0.54-1.14-0.81-2.46-0.82-3.96v-1.15c0-1.53,0.27-2.88,0.8-4.05c0.53-1.17,1.28-2.07,2.26-2.69c0.97-0.62,2.08-0.93,3.34-0.93
		c1.27,0,2.4,0.31,3.37,0.92s1.72,1.51,2.24,2.68c0.52,1.17,0.79,2.53,0.79,4.08V1408.42z M730.46,1407.4
		c0-1.89-0.38-3.33-1.14-4.34c-0.76-1.01-1.82-1.51-3.18-1.51c-1.33,0-2.37,0.5-3.13,1.51c-0.76,1.01-1.15,2.41-1.17,4.2v1.17
		c0,1.83,0.38,3.26,1.15,4.31c0.77,1.05,1.83,1.57,3.17,1.57c1.35,0,2.4-0.49,3.15-1.48c0.74-0.99,1.13-2.4,1.15-4.24V1407.4z
		 M740.39,1408.77c-1.8-0.52-3.11-1.15-3.93-1.91c-0.82-0.75-1.23-1.68-1.23-2.79c0-1.25,0.5-2.29,1.5-3.11
		c1-0.82,2.3-1.23,3.91-1.23c1.09,0,2.07,0.21,2.92,0.63c0.86,0.42,1.52,1.01,1.99,1.75c0.47,0.74,0.7,1.55,0.7,2.44h-2.11
		c0-0.96-0.31-1.72-0.92-2.27c-0.61-0.55-1.47-0.83-2.59-0.83c-1.03,0-1.84,0.23-2.42,0.68s-0.87,1.09-0.87,1.9
		c0,0.65,0.27,1.2,0.82,1.65c0.55,0.45,1.49,0.86,2.81,1.23c1.32,0.37,2.36,0.78,3.1,1.23c0.75,0.45,1.3,0.97,1.66,1.57
		c0.36,0.6,0.54,1.3,0.54,2.11c0,1.29-0.5,2.32-1.51,3.1c-1,0.78-2.35,1.16-4.03,1.16c-1.09,0-2.11-0.21-3.06-0.63
		c-0.95-0.42-1.68-0.99-2.19-1.72c-0.51-0.73-0.77-1.55-0.77-2.48h2.11c0,0.96,0.36,1.72,1.07,2.28c0.71,0.56,1.66,0.84,2.85,0.84
		c1.11,0,1.96-0.23,2.55-0.68c0.59-0.45,0.88-1.07,0.88-1.85c0-0.78-0.27-1.38-0.82-1.81
		C742.82,1409.61,741.83,1409.19,740.39,1408.77z M761.19,1415.86h-2.11v-7.35h-8.02v7.35h-2.1v-15.9h2.1v6.84h8.02v-6.84h2.11
		V1415.86z M773.89,1411.7h-6.66l-1.5,4.16h-2.16l6.07-15.9h1.84l6.08,15.9h-2.15L773.89,1411.7z M767.86,1409.99h5.41l-2.71-7.44
		L767.86,1409.99z M796.94,1410.82c-0.2,1.68-0.82,2.98-1.86,3.89c-1.05,0.91-2.43,1.37-4.17,1.37c-1.88,0-3.38-0.67-4.52-2.02
		c-1.13-1.35-1.7-3.15-1.7-5.41v-1.53c0-1.48,0.26-2.78,0.79-3.9c0.53-1.12,1.28-1.98,2.24-2.58c0.97-0.6,2.09-0.9,3.36-0.9
		c1.69,0,3.04,0.47,4.06,1.41c1.02,0.94,1.61,2.25,1.78,3.92h-2.11c-0.18-1.27-0.58-2.19-1.19-2.76c-0.61-0.57-1.46-0.85-2.55-0.85
		c-1.34,0-2.39,0.5-3.15,1.49c-0.76,0.99-1.14,2.4-1.14,4.23v1.54c0,1.73,0.36,3.1,1.08,4.12s1.73,1.53,3.03,1.53
		c1.16,0,2.06-0.26,2.68-0.79c0.62-0.53,1.04-1.45,1.24-2.76H796.94z M808.85,1413.8c-0.99,1.52-2.48,2.28-4.46,2.28
		c-1.6,0-2.91-0.53-3.91-1.58c-1-1.05-1.51-2.46-1.51-4.22v-0.37c0-1.17,0.22-2.22,0.67-3.14c0.45-0.92,1.07-1.64,1.88-2.16
		c0.8-0.52,1.68-0.78,2.62-0.78c1.54,0,2.73,0.51,3.58,1.52c0.85,1.01,1.28,2.46,1.28,4.35v0.84h-8.01
		c0.03,1.17,0.37,2.11,1.02,2.82c0.65,0.72,1.48,1.08,2.49,1.08c0.71,0,1.32-0.15,1.81-0.44c0.5-0.29,0.93-0.68,1.3-1.16
		L808.85,1413.8L808.85,1413.8z M804.14,1405.49c-0.82,0-1.5,0.3-2.05,0.89c-0.55,0.59-0.9,1.43-1.03,2.5h5.92v-0.15
		c-0.06-1.03-0.34-1.82-0.83-2.39C805.65,1405.77,804.98,1405.49,804.14,1405.49z M817.05,1405.86c-0.31-0.05-0.64-0.08-0.99-0.08
		c-1.33,0-2.22,0.56-2.7,1.69v8.39h-2.02v-11.82h1.97l0.03,1.37c0.66-1.06,1.6-1.58,2.82-1.58c0.39,0,0.69,0.05,0.9,0.15V1405.86z
		 M822.19,1401.18v2.86h2.21v1.56h-2.21v7.34c0,0.47,0.1,0.83,0.29,1.07c0.2,0.24,0.53,0.36,1,0.36c0.23,0,0.55-0.04,0.96-0.13v1.63
		c-0.53,0.14-1.05,0.22-1.55,0.22c-0.9,0-1.58-0.27-2.04-0.82c-0.46-0.55-0.69-1.32-0.69-2.33v-7.33h-2.15v-1.56h2.15v-2.86H822.19z
		 M826.77,1400.91c0-0.33,0.1-0.6,0.3-0.83c0.2-0.23,0.5-0.34,0.89-0.34c0.39,0,0.69,0.11,0.9,0.34c0.2,0.23,0.31,0.5,0.31,0.83
		c0,0.33-0.1,0.6-0.31,0.82c-0.2,0.22-0.5,0.33-0.9,0.33c-0.39,0-0.69-0.11-0.89-0.33C826.87,1401.51,826.77,1401.24,826.77,1400.91
		z M828.96,1415.86h-2.02v-11.82h2.02V1415.86z M832.88,1415.86v-10.26h-1.87v-1.56h1.87v-1c0-1.32,0.38-2.34,1.13-3.08
		c0.75-0.74,1.82-1.1,3.2-1.1c0.82,0,1.85,0.22,3.09,0.67l-0.34,1.7c-0.91-0.36-1.78-0.55-2.6-0.55c-0.87,0-1.49,0.19-1.87,0.58
		c-0.38,0.39-0.57,0.97-0.57,1.75v1.03h2.41v1.56h-2.41v10.26H832.88z M841.3,1415.86h-2.03v-11.82h2.03V1415.86z M849.33,1414.43
		c0.72,0,1.35-0.22,1.89-0.66c0.54-0.44,0.84-0.98,0.9-1.64h1.91c-0.04,0.68-0.27,1.32-0.7,1.93c-0.43,0.61-1,1.1-1.72,1.46
		c-0.72,0.36-1.48,0.55-2.28,0.55c-1.61,0-2.89-0.54-3.84-1.61c-0.95-1.07-1.43-2.54-1.43-4.41v-0.34c0-1.15,0.21-2.17,0.63-3.07
		c0.42-0.9,1.03-1.59,1.82-2.09c0.79-0.5,1.72-0.74,2.8-0.74c1.33,0,2.43,0.4,3.3,1.19c0.88,0.79,1.35,1.82,1.4,3.09h-1.91
		c-0.06-0.76-0.35-1.39-0.87-1.88c-0.52-0.49-1.16-0.74-1.93-0.74c-1.03,0-1.82,0.37-2.39,1.11c-0.56,0.74-0.85,1.81-0.85,3.21v0.38
		c0,1.36,0.28,2.41,0.84,3.15C847.49,1414.06,848.29,1414.43,849.33,1414.43z M863.59,1415.86c-0.12-0.23-0.21-0.65-0.28-1.25
		c-0.94,0.98-2.06,1.46-3.36,1.46c-1.17,0-2.12-0.33-2.87-0.99c-0.75-0.66-1.12-1.49-1.12-2.51c0-1.23,0.47-2.19,1.4-2.87
		c0.94-0.68,2.25-1.02,3.95-1.02h1.97v-0.93c0-0.71-0.21-1.27-0.63-1.69c-0.42-0.42-1.05-0.63-1.87-0.63
		c-0.72,0-1.33,0.18-1.81,0.55c-0.49,0.36-0.73,0.8-0.73,1.32h-2.03c0-0.59,0.21-1.16,0.63-1.71c0.42-0.55,0.99-0.98,1.7-1.31
		c0.72-0.32,1.51-0.48,2.36-0.48c1.36,0,2.43,0.34,3.2,1.02c0.77,0.68,1.17,1.62,1.2,2.81v5.44c0,1.09,0.14,1.95,0.42,2.59v0.17
		H863.59z M860.24,1414.32c0.63,0,1.23-0.16,1.8-0.49c0.57-0.33,0.98-0.75,1.23-1.28v-2.42h-1.58c-2.48,0-3.71,0.72-3.71,2.17
		c0,0.63,0.21,1.13,0.63,1.49C859.03,1414.14,859.57,1414.32,860.24,1414.32z M871.2,1401.18v2.86h2.21v1.56h-2.21v7.34
		c0,0.47,0.1,0.83,0.29,1.07c0.2,0.24,0.53,0.36,1,0.36c0.23,0,0.55-0.04,0.96-0.13v1.63c-0.53,0.14-1.05,0.22-1.55,0.22
		c-0.9,0-1.58-0.27-2.04-0.82c-0.46-0.55-0.69-1.32-0.69-2.33v-7.33h-2.15v-1.56h2.15v-2.86H871.2z M875.79,1400.91
		c0-0.33,0.1-0.6,0.3-0.83c0.2-0.23,0.5-0.34,0.89-0.34c0.39,0,0.69,0.11,0.9,0.34c0.2,0.23,0.31,0.5,0.31,0.83
		c0,0.33-0.1,0.6-0.31,0.82c-0.2,0.22-0.5,0.33-0.9,0.33c-0.39,0-0.69-0.11-0.89-0.33C875.89,1401.51,875.79,1401.24,875.79,1400.91
		z M877.97,1415.86h-2.02v-11.82h2.02V1415.86z M880.68,1409.84c0-1.16,0.23-2.2,0.68-3.12c0.46-0.92,1.09-1.64,1.9-2.14
		c0.81-0.5,1.74-0.75,2.78-0.75c1.61,0,2.91,0.56,3.91,1.67c0.99,1.11,1.49,2.6,1.49,4.45v0.14c0,1.15-0.22,2.18-0.66,3.1
		c-0.44,0.91-1.07,1.63-1.89,2.14c-0.82,0.51-1.76,0.76-2.82,0.76c-1.6,0-2.9-0.56-3.89-1.67c-0.99-1.11-1.49-2.59-1.49-4.42
		V1409.84z M882.71,1410.08c0,1.31,0.3,2.36,0.91,3.16c0.61,0.79,1.42,1.19,2.44,1.19c1.03,0,1.84-0.4,2.45-1.21
		c0.6-0.8,0.91-1.93,0.91-3.38c0-1.3-0.31-2.35-0.92-3.15c-0.62-0.8-1.43-1.21-2.45-1.21c-1,0-1.8,0.4-2.41,1.19
		C883.02,1407.47,882.71,1408.61,882.71,1410.08z M895.88,1404.04l0.07,1.49c0.9-1.14,2.08-1.7,3.54-1.7c2.5,0,3.76,1.41,3.78,4.23
		v7.81h-2.02v-7.82c-0.01-0.85-0.2-1.48-0.58-1.89s-0.98-0.61-1.79-0.61c-0.66,0-1.23,0.17-1.73,0.52c-0.5,0.35-0.88,0.81-1.16,1.38
		v8.42h-2.02v-11.82H895.88z"/>
	<text transform="matrix(1 0 0 1 904.749 1415.8604)" class="st13 st1 st10"> </text>
	<text transform="matrix(1 0 0 1 698.2461 1444.9424)" class="st13 st1 st10">   </text>
	<text transform="matrix(1 0 0 1 714.8672 1444.9424)" class="st5"><tspan x="0" y="0" class="st17 st1 st10">Gene</tspan><tspan x="51.28" y="0" class="st17 st1 st10">r</tspan><tspan x="58.41" y="0" class="st17 st1 st10">al Industry Safety and Health</tspan></text>
	<text transform="matrix(1 0 0 1 698.2461 1478.499)" class="st5"><tspan x="0" y="0" class="st17 st1 st10">– Citizenship </tspan><tspan x="135.6" y="0" class="st17 st1 st10">A</tspan><tspan x="149.77" y="0" class="st17 st1 st10">wards</tspan></text>
	<text transform="matrix(1 0 0 1 698.2461 1507.5801)" class="st13 st1 st10">   2017 and 2018</text>
	<text transform="matrix(1 0 0 1 698.2461 1543.374)" class="st5"><tspan x="0" y="0" class="st17 st1 st10">– Ram Pride Shop </tspan><tspan x="184.86" y="0" class="st17 st1 st10">A</tspan><tspan x="199.08" y="0" class="st17 st1 st10">ward</tspan></text>
	<text transform="matrix(1 0 0 1 698.2461 1566.6377)" class="st13 st1 st10">   2018</text>
</g>
<g id="Layer_4">
	<text transform="matrix(1 0 0 1 328.2339 333.0547)"><tspan x="0" y="0" class="st17 st16 st15">EDUC</tspan><tspan x="67.83" y="0" class="st17 st16 st15 st8">A</tspan><tspan x="84.56" y="0" class="st17 st16 st15">TION </tspan></text>
	<text transform="matrix(1 0 0 1 328.2339 381.8315)"><tspan x="0" y="0" class="st17 st6 st15">G</tspan><tspan x="18.27" y="0" class="st17 st6 st15">r</tspan><tspan x="27.33" y="0" class="st17 st6 st15">aphic Design and Illust</tspan><tspan x="299.23" y="0" class="st17 st6 st15">r</tspan><tspan x="308.34" y="0" class="st17 st6 st15">ation Underg</tspan><tspan x="462.19" y="0" class="st17 st6 st15">r</tspan><tspan x="471.25" y="0" class="st17 st6 st15">aduate | UMass Da</tspan><tspan x="695.79" y="0" class="st17 st6 st15">r</tspan><tspan x="705.87" y="0" class="st17 st6 st15">tmouth</tspan></text>
	<text transform="matrix(1 0 0 1 328.2339 418.5112)" class="st17 st1 st18">2018 – Current </text>
	<text transform="matrix(1 0 0 1 328.2339 447.1445)"><tspan x="0" y="0" class="st17 st1 st10">Chancello</tspan><tspan x="98.57" y="0" class="st17 st1 st10">r</tspan><tspan x="106.3" y="0" class="st17 st1 st10 st8">’</tspan><tspan x="109.56" y="0" class="st17 st1 st10">s List, 3.72 G</tspan><tspan x="237.22" y="0" class="st17 st1 st10 st8">P</tspan><tspan x="249.76" y="0" class="st17 st1 st10">A</tspan></text>
	<text transform="matrix(1 0 0 1 328.2339 506.2031)"><tspan x="0" y="0" class="st17 st6 st15">High School Diploma | Shawsheen</tspan><tspan x="409.71" y="0" class="st17 st6 st15"> </tspan><tspan x="415.7" y="0" class="st17 st6 st15">Technical Highschool </tspan></text>
	<text transform="matrix(1 0 0 1 328.2339 545.127)" class="st17 st1 st18">2014 – 2018</text>
	<text transform="matrix(1 0 0 1 467.1089 545.127)" class="st17 st1 st15"> </text>
	<text transform="matrix(1 0 0 1 328.2339 576.4453)" class="st17 st1 st10">Design and Visual Communications  </text>
	<text transform="matrix(1 0 0 1 328.2339 603.292)"><tspan x="0" y="0" class="st17 st1 st10">Citizenship </tspan><tspan x="115.38" y="0" class="st17 st1 st10">A</tspan><tspan x="129.55" y="0" class="st17 st1 st10">wards for 2017 and 2018 </tspan></text>
	<text transform="matrix(1 0 0 1 328.2339 630.1377)"><tspan x="0" y="0" class="st17 st1 st10">2018 Ram Pride Shop </tspan><tspan x="220.43" y="0" class="st17 st1 st10">A</tspan><tspan x="234.6" y="0" class="st17 st1 st10">ward</tspan></text>
</g>
</svg>
