<?xml version="1.0" encoding="utf-8"?>
<!-- Generator: Adobe Illustrator 24.3.0, SVG Export Plug-In . SVG Version: 6.00 Build 0)  -->
<svg version="1.1" xmlns="http://www.w3.org/2000/svg" xmlns:xlink="http://www.w3.org/1999/xlink" x="0px" y="0px"
	 viewBox="0 0 612 792" style="enable-background:new 0 0 612 792;" xml:space="preserve">
<style type="text/css">
	.st0{fill:#582255;}
	.st1{fill:#F36F56;}
	.st2{fill:#FFFFFF;}
	.st3{font-family:'Roboto-Medium';}
	.st4{font-size:36px;}
	.st5{font-size:14px;}
	.st6{font-family:'Roboto-Regular';}
	.st7{font-size:10px;}
	.st8{display:none;}
	.st9{display:inline;}
	.st10{font-family:'Roboto-Light';}
	.st11{display:inline;fill:#FFFFFF;}
</style>
<g id="Layer_1">
	<rect x="0.5" y="24.95" class="st0" width="611" height="93.5"/>
	<rect x="0.5" class="st1" width="611" height="93.5"/>
	<text transform="matrix(1 0 0 1 33 50.2225)"><tspan x="0" y="0" class="st2 st3 st4">Rachel </tspan><tspan x="118.25" y="0" class="st2 st3 st4">W</tspan><tspan x="149.38" y="0" class="st2 st3 st4">arren</tspan></text>
	<text transform="matrix(1 0 0 1 36 67.7703)"><tspan x="0" y="0" class="st2 st3 st5">G</tspan><tspan x="9.53" y="0" class="st2 st3 st5">r</tspan><tspan x="14.26" y="0" class="st2 st3 st5">aphic Designer and Illust</tspan><tspan x="168.49" y="0" class="st2 st3 st5">r</tspan><tspan x="173.23" y="0" class="st2 st3 st5">a</tspan><tspan x="180.8" y="0" class="st2 st3 st5">t</tspan><tspan x="185.26" y="0" class="st2 st3 st5">or</tspan></text>
	<text transform="matrix(1 0 0 1 450.3994 31.9783)"><tspan x="0" y="0" class="st2 st6 st7">No</tspan><tspan x="12.83" y="0" class="st2 st6 st7">r</tspan><tspan x="16.46" y="0" class="st2 st6 st7">th Da</tspan><tspan x="39.7" y="0" class="st2 st6 st7">r</tspan><tspan x="43.32" y="0" class="st2 st6 st7">tmouth, MA 02747</tspan></text>
	<text transform="matrix(1 0 0 1 472.6494 59.3289)"><tspan x="0" y="0" class="st2 st6 st7">r</tspan><tspan x="3.46" y="0" class="st2 st6 st7">warren2@umassd.edu</tspan></text>
	<text transform="matrix(1 0 0 1 504.3291 46.0789)"><tspan x="0" y="0" class="st2 st6 st7">(</tspan><tspan x="3.03" y="0" class="st2 st6 st7">978</tspan><tspan x="18.67" y="0" class="st2 st6 st7">)</tspan><tspan x="21.76" y="0" class="st2 st6 st7"> </tspan><tspan x="23.84" y="0" class="st2 st6 st7">- </tspan><tspan x="28.29" y="0" class="st2 st6 st7">604</tspan><tspan x="43.94" y="0" class="st2 st6 st7"> - </tspan><tspan x="50.48" y="0" class="st2 st6 st7">212</tspan><tspan x="66.12" y="0" class="st2 st6 st7">3</tspan></text>
</g>
<g id="Layer_2" class="st8">
	<text transform="matrix(1 0 0 1 425.3906 111.6697)" class="st9"><tspan x="0" y="0" class="st2 st10 st5">P</tspan><tspan x="8.54" y="0" class="st2 st10 st5">o</tspan><tspan x="16.38" y="0" class="st2 st10 st5">r</tspan><tspan x="21.42" y="0" class="st2 st10 st5">tfolio</tspan></text>
	<text transform="matrix(1 0 0 1 330.5957 111.6697)" class="st11 st10 st5">About </text>
	<text transform="matrix(1 0 0 1 528.7939 111.6697)" class="st11 st10 st5">Contact</text>
</g>
</svg>
