<?xml version="1.0" encoding="utf-8"?>
<!-- Generator: Adobe Illustrator 24.3.0, SVG Export Plug-In . SVG Version: 6.00 Build 0)  -->
<svg version="1.1" id="Layer_1" xmlns="http://www.w3.org/2000/svg" xmlns:xlink="http://www.w3.org/1999/xlink" x="0px" y="0px"
	 viewBox="0 0 1366 768" style="enable-background:new 0 0 1366 768;" xml:space="preserve">
<style type="text/css">
	.st0{fill:#582255;}
	.st1{fill:#F26F56;}
	.st2{fill:#FFFFFF;}
	.st3{font-family:'Roboto-Medium';}
	.st4{font-size:80.4919px;}
	.st5{letter-spacing:-1;}
	.st6{font-size:31.3024px;}
	.st7{font-family:'Roboto-Regular';}
	.st8{font-size:22.3589px;}
</style>
<rect x="-0.13" y="55.62" class="st0" width="1366.13" height="209.06"/>
<rect x="-0.13" y="-0.17" class="st1" width="1366.13" height="209.06"/>
<text transform="matrix(1 0 0 1 72.5386 112.1255)"><tspan x="0" y="0" class="st2 st3 st4">Rachel </tspan><tspan x="264.39" y="0" class="st2 st3 st4 st5">W</tspan><tspan x="334.01" y="0" class="st2 st3 st4">arren</tspan></text>
<text transform="matrix(1 0 0 1 79.2476 151.3599)"><tspan x="0" y="0" class="st2 st3 st6">G</tspan><tspan x="21.31" y="0" class="st2 st3 st6">r</tspan><tspan x="31.87" y="0" class="st2 st3 st6">aphic Designer and Illust</tspan><tspan x="376.72" y="0" class="st2 st3 st6">r</tspan><tspan x="387.32" y="0" class="st2 st3 st6">a</tspan><tspan x="404.25" y="0" class="st2 st3 st6">t</tspan><tspan x="414.22" y="0" class="st2 st3 st6">or</tspan></text>
<text transform="matrix(1 0 0 1 1005.7969 71.3345)"><tspan x="0" y="0" class="st2 st7 st8">No</tspan><tspan x="28.69" y="0" class="st2 st7 st8">r</tspan><tspan x="36.79" y="0" class="st2 st7 st8">th Da</tspan><tspan x="88.77" y="0" class="st2 st7 st8">r</tspan><tspan x="96.85" y="0" class="st2 st7 st8">tmouth, MA 02747</tspan></text>
<text transform="matrix(1 0 0 1 1055.5469 132.4868)"><tspan x="0" y="0" class="st2 st7 st8">r</tspan><tspan x="7.75" y="0" class="st2 st7 st8">warren2@umassd.edu</tspan></text>
<text transform="matrix(1 0 0 1 1126.3779 102.8608)"><tspan x="0" y="0" class="st2 st7 st8">(</tspan><tspan x="6.77" y="0" class="st2 st7 st8">978</tspan><tspan x="41.75" y="0" class="st2 st7 st8">)</tspan><tspan x="48.65" y="0" class="st2 st7 st8"> </tspan><tspan x="53.29" y="0" class="st2 st7 st8">- </tspan><tspan x="63.25" y="0" class="st2 st7 st8">604</tspan><tspan x="98.24" y="0" class="st2 st7 st8"> - </tspan><tspan x="112.86" y="0" class="st2 st7 st8">212</tspan><tspan x="147.84" y="0" class="st2 st7 st8">3</tspan></text>
</svg>
