<?xml version="1.0" encoding="utf-8"?>
<!-- Generator: Adobe Illustrator 24.3.0, SVG Export Plug-In . SVG Version: 6.00 Build 0)  -->
<svg version="1.1" xmlns="http://www.w3.org/2000/svg" xmlns:xlink="http://www.w3.org/1999/xlink" x="0px" y="0px"
	 viewBox="0 0 612 792" style="enable-background:new 0 0 612 792;" xml:space="preserve">
<style type="text/css">
	.st0{fill:#683B5F;}
	.st1{font-family:'Avenir-Heavy';}
	.st2{font-size:10.851px;}
	.st3{font-family:'Roboto-Regular';}
	.st4{font-family:'Roboto-Black';}
	.st5{font-size:9.0425px;}
	.st6{display:none;}
	.st7{display:inline;}
	.st8{font-family:'Roboto-Medium';}
	.st9{display:inline;fill:#683B5F;}
	.st10{font-size:9.9468px;}
	.st11{font-family:'Avenir-Medium';}
	.st12{letter-spacing:-1;}
	.st13{font-size:12.1283px;}
</style>
<g id="Layer_1">
	<text transform="matrix(1 0 0 1 530.6533 163.3608)" class="st0 st1 st2"> </text>
	<text transform="matrix(1 0 0 1 498.3818 583.6074)" class="st0 st3 st2">   </text>
	<text transform="matrix(1 0 0 1 210.4824 561.4072)"><tspan x="0" y="0" class="st0 st4 st2">SKILLS AND </tspan><tspan x="62.99" y="0" class="st0 st4 st2">A</tspan><tspan x="70.19" y="0" class="st0 st4 st2">W</tspan><tspan x="79.39" y="0" class="st0 st4 st2">ARDS</tspan></text>
	<text transform="matrix(1 0 0 1 210.4824 581.6641)" class="st0 st3 st5">– Adobe InDesign</text>
	<text transform="matrix(1 0 0 1 210.4824 597.0371)"><tspan x="0" y="0" class="st0 st3 st5">– Adobe Illust</tspan><tspan x="55.88" y="0" class="st0 st3 st5">r</tspan><tspan x="58.76" y="0" class="st0 st3 st5">a</tspan><tspan x="63.68" y="0" class="st0 st3 st5">t</tspan><tspan x="66.55" y="0" class="st0 st3 st5">or</tspan></text>
	<text transform="matrix(1 0 0 1 210.4824 612.4092)"><tspan x="0" y="0" class="st0 st3 st5">– Adobe Pho</tspan><tspan x="52.27" y="0" class="st0 st3 st5">t</tspan><tspan x="55.15" y="0" class="st0 st3 st5">oshop</tspan></text>
	<text transform="matrix(1 0 0 1 210.8086 627.7812)" class="st0 st3 st5">– Adobe XD</text>
	<text transform="matrix(1 0 0 1 210.4824 643.1533)" class="st0 st3 st5">– Adobe Premiere </text>
	<path class="st0" d="M365.18,578.46h-4.42v-0.67h4.42V578.46z M373.91,578.32c0,0.63-0.11,1.18-0.32,1.65
		c-0.21,0.47-0.51,0.83-0.9,1.08s-0.84,0.37-1.36,0.37c-0.51,0-0.96-0.12-1.35-0.37c-0.39-0.25-0.7-0.6-0.91-1.06
		c-0.22-0.46-0.33-0.99-0.33-1.6v-0.46c0-0.62,0.11-1.16,0.32-1.64c0.21-0.47,0.52-0.84,0.91-1.09c0.39-0.25,0.84-0.38,1.35-0.38
		c0.52,0,0.97,0.12,1.36,0.37c0.39,0.25,0.7,0.61,0.91,1.08c0.21,0.47,0.32,1.02,0.32,1.65V578.32z M373.07,577.91
		c0-0.76-0.15-1.35-0.46-1.76c-0.31-0.41-0.73-0.61-1.28-0.61c-0.54,0-0.96,0.2-1.26,0.61c-0.31,0.41-0.47,0.97-0.47,1.7v0.47
		c0,0.74,0.16,1.32,0.47,1.74c0.31,0.42,0.74,0.63,1.28,0.63c0.55,0,0.97-0.2,1.27-0.6c0.3-0.4,0.45-0.97,0.46-1.72V577.91z
		 M377.08,578.46c-0.73-0.21-1.26-0.47-1.59-0.77c-0.33-0.3-0.5-0.68-0.5-1.13c0-0.51,0.2-0.93,0.61-1.26
		c0.4-0.33,0.93-0.5,1.58-0.5c0.44,0,0.84,0.09,1.18,0.26c0.35,0.17,0.61,0.41,0.8,0.71c0.19,0.3,0.28,0.63,0.28,0.98h-0.85
		c0-0.39-0.12-0.7-0.37-0.92s-0.6-0.33-1.05-0.33c-0.42,0-0.74,0.09-0.98,0.28s-0.35,0.44-0.35,0.77c0,0.26,0.11,0.48,0.33,0.67
		c0.22,0.18,0.6,0.35,1.13,0.5s0.95,0.32,1.25,0.5c0.3,0.18,0.53,0.39,0.67,0.63c0.15,0.24,0.22,0.53,0.22,0.85
		c0,0.52-0.2,0.94-0.61,1.25c-0.41,0.31-0.95,0.47-1.63,0.47c-0.44,0-0.85-0.08-1.24-0.25c-0.38-0.17-0.68-0.4-0.89-0.7
		c-0.21-0.29-0.31-0.63-0.31-1h0.85c0,0.39,0.14,0.7,0.43,0.92s0.67,0.34,1.15,0.34c0.45,0,0.79-0.09,1.03-0.27
		c0.24-0.18,0.36-0.43,0.36-0.75c0-0.31-0.11-0.56-0.33-0.73S377.66,578.63,377.08,578.46z M385.49,581.33h-0.85v-2.97h-3.24v2.97
		h-0.85v-6.43h0.85v2.76h3.24v-2.76h0.85V581.33z M390.62,579.65h-2.69l-0.6,1.68h-0.87l2.45-6.43h0.74l2.46,6.43h-0.87
		L390.62,579.65z M388.18,578.95h2.19l-1.09-3.01L388.18,578.95z M399.94,579.29c-0.08,0.68-0.33,1.2-0.75,1.57
		c-0.42,0.37-0.98,0.55-1.68,0.55c-0.76,0-1.37-0.27-1.83-0.82c-0.46-0.54-0.69-1.27-0.69-2.19v-0.62c0-0.6,0.11-1.12,0.32-1.58
		c0.21-0.45,0.52-0.8,0.91-1.04c0.39-0.24,0.84-0.36,1.36-0.36c0.68,0,1.23,0.19,1.64,0.57c0.41,0.38,0.65,0.91,0.72,1.58h-0.85
		c-0.07-0.51-0.23-0.89-0.48-1.12c-0.25-0.23-0.59-0.35-1.03-0.35c-0.54,0-0.97,0.2-1.27,0.6c-0.31,0.4-0.46,0.97-0.46,1.71v0.62
		c0,0.7,0.15,1.25,0.44,1.67c0.29,0.41,0.7,0.62,1.22,0.62c0.47,0,0.83-0.11,1.08-0.32c0.25-0.21,0.42-0.59,0.5-1.11H399.94z
		 M404.75,580.5c-0.4,0.62-1,0.92-1.8,0.92c-0.65,0-1.17-0.21-1.58-0.64c-0.41-0.43-0.61-0.99-0.61-1.71v-0.15
		c0-0.47,0.09-0.9,0.27-1.27c0.18-0.37,0.43-0.66,0.76-0.87c0.33-0.21,0.68-0.32,1.06-0.32c0.62,0,1.1,0.2,1.45,0.61
		c0.34,0.41,0.52,0.99,0.52,1.76v0.34h-3.24c0.01,0.47,0.15,0.85,0.41,1.14c0.26,0.29,0.6,0.43,1,0.43c0.29,0,0.53-0.06,0.73-0.18
		c0.2-0.12,0.38-0.27,0.53-0.47L404.75,580.5L404.75,580.5z M402.85,577.14c-0.33,0-0.61,0.12-0.83,0.36
		c-0.22,0.24-0.36,0.58-0.42,1.01H404v-0.06c-0.02-0.42-0.14-0.74-0.34-0.96C403.46,577.25,403.19,577.14,402.85,577.14z
		 M408.07,577.29c-0.12-0.02-0.26-0.03-0.4-0.03c-0.54,0-0.9,0.23-1.09,0.68v3.39h-0.82v-4.78h0.79l0.01,0.55
		c0.27-0.43,0.65-0.64,1.14-0.64c0.16,0,0.28,0.02,0.36,0.06V577.29z M410.15,575.4v1.16h0.89v0.63h-0.89v2.97
		c0,0.19,0.04,0.34,0.12,0.43s0.21,0.14,0.41,0.14c0.09,0,0.22-0.02,0.39-0.05v0.66c-0.21,0.06-0.42,0.09-0.63,0.09
		c-0.37,0-0.64-0.11-0.83-0.33c-0.19-0.22-0.28-0.53-0.28-0.94v-2.96h-0.87v-0.63h0.87v-1.16H410.15z M412,575.29
		c0-0.13,0.04-0.24,0.12-0.34c0.08-0.09,0.2-0.14,0.36-0.14c0.16,0,0.28,0.05,0.36,0.14c0.08,0.09,0.12,0.2,0.12,0.34
		s-0.04,0.24-0.12,0.33c-0.08,0.09-0.2,0.13-0.36,0.13c-0.16,0-0.28-0.04-0.36-0.13C412.04,575.53,412,575.42,412,575.29z
		 M412.88,581.33h-0.82v-4.78h0.82V581.33z M414.47,581.33v-4.15h-0.76v-0.63h0.76v-0.41c0-0.53,0.15-0.95,0.46-1.25
		c0.3-0.3,0.74-0.45,1.29-0.45c0.33,0,0.75,0.09,1.25,0.27l-0.14,0.69c-0.37-0.15-0.72-0.22-1.05-0.22c-0.35,0-0.6,0.08-0.76,0.24
		c-0.15,0.16-0.23,0.39-0.23,0.71v0.42h0.98v0.63h-0.98v4.15H414.47z M417.87,581.33h-0.82v-4.78h0.82V581.33z M421.12,580.75
		c0.29,0,0.55-0.09,0.76-0.26c0.22-0.18,0.34-0.4,0.36-0.66h0.77c-0.01,0.27-0.11,0.53-0.28,0.78c-0.17,0.25-0.41,0.44-0.7,0.59
		c-0.29,0.15-0.6,0.22-0.92,0.22c-0.65,0-1.17-0.22-1.55-0.65c-0.38-0.43-0.58-1.03-0.58-1.78v-0.14c0-0.47,0.09-0.88,0.26-1.24
		c0.17-0.36,0.42-0.64,0.74-0.84c0.32-0.2,0.7-0.3,1.13-0.3c0.54,0,0.98,0.16,1.34,0.48c0.35,0.32,0.54,0.74,0.57,1.25h-0.77
		c-0.02-0.31-0.14-0.56-0.35-0.76c-0.21-0.2-0.47-0.3-0.78-0.3c-0.42,0-0.74,0.15-0.96,0.45c-0.23,0.3-0.34,0.73-0.34,1.3v0.15
		c0,0.55,0.11,0.97,0.34,1.27C420.37,580.6,420.7,580.75,421.12,580.75z M426.88,581.33c-0.05-0.09-0.09-0.26-0.11-0.5
		c-0.38,0.39-0.83,0.59-1.36,0.59c-0.47,0-0.86-0.13-1.16-0.4c-0.3-0.27-0.45-0.6-0.45-1.01c0-0.5,0.19-0.88,0.57-1.16
		c0.38-0.28,0.91-0.41,1.6-0.41h0.79v-0.38c0-0.29-0.09-0.51-0.26-0.68c-0.17-0.17-0.42-0.25-0.76-0.25c-0.29,0-0.54,0.07-0.73,0.22
		c-0.2,0.15-0.3,0.33-0.3,0.53h-0.82c0-0.24,0.08-0.47,0.25-0.69c0.17-0.22,0.4-0.4,0.69-0.53c0.29-0.13,0.61-0.19,0.96-0.19
		c0.55,0,0.98,0.14,1.29,0.41c0.31,0.28,0.47,0.65,0.49,1.14v2.2c0,0.44,0.06,0.79,0.17,1.05v0.07H426.88z M425.53,580.71
		c0.26,0,0.5-0.07,0.73-0.2c0.23-0.13,0.4-0.3,0.5-0.52v-0.98h-0.64c-1,0-1.5,0.29-1.5,0.88c0,0.26,0.09,0.46,0.26,0.6
		C425.04,580.63,425.26,580.71,425.53,580.71z M429.96,575.4v1.16h0.89v0.63h-0.89v2.97c0,0.19,0.04,0.34,0.12,0.43
		s0.21,0.14,0.41,0.14c0.09,0,0.22-0.02,0.39-0.05v0.66c-0.21,0.06-0.42,0.09-0.63,0.09c-0.37,0-0.64-0.11-0.83-0.33
		c-0.19-0.22-0.28-0.53-0.28-0.94v-2.96h-0.87v-0.63h0.87v-1.16H429.96z M431.81,575.29c0-0.13,0.04-0.24,0.12-0.34
		c0.08-0.09,0.2-0.14,0.36-0.14c0.16,0,0.28,0.05,0.36,0.14c0.08,0.09,0.12,0.2,0.12,0.34s-0.04,0.24-0.12,0.33
		c-0.08,0.09-0.2,0.13-0.36,0.13c-0.16,0-0.28-0.04-0.36-0.13C431.85,575.53,431.81,575.42,431.81,575.29z M432.69,581.33h-0.82
		v-4.78h0.82V581.33z M433.79,578.9c0-0.47,0.09-0.89,0.28-1.26c0.18-0.37,0.44-0.66,0.77-0.87c0.33-0.2,0.7-0.3,1.12-0.3
		c0.65,0,1.18,0.23,1.58,0.68c0.4,0.45,0.6,1.05,0.6,1.8v0.06c0,0.47-0.09,0.88-0.27,1.25c-0.18,0.37-0.43,0.66-0.76,0.86
		c-0.33,0.21-0.71,0.31-1.14,0.31c-0.65,0-1.17-0.23-1.57-0.68c-0.4-0.45-0.6-1.05-0.6-1.79V578.9z M434.61,578.99
		c0,0.53,0.12,0.96,0.37,1.28c0.25,0.32,0.57,0.48,0.99,0.48c0.42,0,0.74-0.16,0.99-0.49c0.24-0.33,0.37-0.78,0.37-1.37
		c0-0.52-0.12-0.95-0.37-1.27c-0.25-0.33-0.58-0.49-0.99-0.49c-0.4,0-0.73,0.16-0.98,0.48C434.73,577.94,434.61,578.4,434.61,578.99
		z M439.93,576.55l0.03,0.6c0.36-0.46,0.84-0.69,1.43-0.69c1.01,0,1.52,0.57,1.53,1.71v3.16h-0.82v-3.16c0-0.34-0.08-0.6-0.24-0.76
		c-0.15-0.16-0.4-0.25-0.72-0.25c-0.26,0-0.5,0.07-0.7,0.21c-0.2,0.14-0.36,0.33-0.47,0.56v3.4h-0.82v-4.78H439.93z"/>
	<text transform="matrix(1 0 0 1 443.5176 581.3301)" class="st0 st3 st5"> </text>
	<text transform="matrix(1 0 0 1 360.0459 593.085)" class="st0 st3 st5">   </text>
	<text transform="matrix(1 0 0 1 366.7646 593.085)"><tspan x="0" y="0" class="st0 st3 st5">Gene</tspan><tspan x="20.73" y="0" class="st0 st3 st5">r</tspan><tspan x="23.61" y="0" class="st0 st3 st5">al Industry Safety and Health</tspan></text>
	<text transform="matrix(1 0 0 1 360.0459 606.6484)"><tspan x="0" y="0" class="st0 st3 st5">– Citizenship </tspan><tspan x="54.81" y="0" class="st0 st3 st5">A</tspan><tspan x="60.54" y="0" class="st0 st3 st5">wards</tspan></text>
	<text transform="matrix(1 0 0 1 360.0459 618.4033)" class="st0 st3 st5">   2017 and 2018</text>
	<text transform="matrix(1 0 0 1 360.0459 632.873)"><tspan x="0" y="0" class="st0 st3 st5">– Ram Pride Shop </tspan><tspan x="74.72" y="0" class="st0 st3 st5">A</tspan><tspan x="80.47" y="0" class="st0 st3 st5">ward</tspan></text>
	<text transform="matrix(1 0 0 1 360.0459 642.2754)" class="st0 st3 st5">   2018</text>
	<g>
		<defs>
			<rect id="SVGID_1_" x="5.73" y="-134.15" width="672.07" height="1028.78"/>
		</defs>
		<clipPath id="SVGID_2_">
			<use xlink:href="#SVGID_1_"  style="overflow:visible;"/>
		</clipPath>
	</g>
</g>
<g id="Layer_2" class="st6">
	<text transform="matrix(1 0 0 1 210.4824 143.644)" class="st7"><tspan x="0" y="0" class="st0 st4 st2">EDUC</tspan><tspan x="27.42" y="0" class="st0 st4 st2">A</tspan><tspan x="34.18" y="0" class="st0 st4 st2">TION </tspan></text>
	<text transform="matrix(1 0 0 1 210.4824 163.3608)" class="st7"><tspan x="0" y="0" class="st0 st8 st2">G</tspan><tspan x="7.39" y="0" class="st0 st8 st2">r</tspan><tspan x="11.05" y="0" class="st0 st8 st2">aphic Design and Illust</tspan><tspan x="120.95" y="0" class="st0 st8 st2">r</tspan><tspan x="124.64" y="0" class="st0 st8 st2">ation Underg</tspan><tspan x="186.82" y="0" class="st0 st8 st2">r</tspan><tspan x="190.49" y="0" class="st0 st8 st2">aduate | UMass Da</tspan><tspan x="281.25" y="0" class="st0 st8 st2">r</tspan><tspan x="285.32" y="0" class="st0 st8 st2">tmouth</tspan></text>
	<text transform="matrix(1 0 0 1 210.4824 178.187)" class="st9 st3 st10">2018 – Current </text>
	<text transform="matrix(1 0 0 1 210.4824 189.7603)" class="st7"><tspan x="0" y="0" class="st0 st3 st5">Chancello</tspan><tspan x="39.84" y="0" class="st0 st3 st5">r</tspan><tspan x="42.97" y="0" class="st0 st3 st5">’</tspan><tspan x="44.28" y="0" class="st0 st3 st5">s List, 3.72 G</tspan><tspan x="95.89" y="0" class="st0 st3 st5">P</tspan><tspan x="100.96" y="0" class="st0 st3 st5">A</tspan></text>
	<text transform="matrix(1 0 0 1 210.4824 213.6333)" class="st7"><tspan x="0" y="0" class="st0 st8 st2">High School Diploma | Shawsheen</tspan><tspan x="165.61" y="0" class="st0 st8 st2"> </tspan><tspan x="168.03" y="0" class="st0 st8 st2">Technical Highschool </tspan></text>
	<text transform="matrix(1 0 0 1 210.4824 229.3677)" class="st9 st3 st10">2014 – 2018</text>
	<text transform="matrix(1 0 0 1 266.6172 229.3677)" class="st9 st3 st2"> </text>
	<text transform="matrix(1 0 0 1 210.4824 242.0269)" class="st9 st3 st5">Design and Visual Communications  </text>
	<text transform="matrix(1 0 0 1 210.4824 252.8774)" class="st7"><tspan x="0" y="0" class="st0 st3 st5">Citizenship </tspan><tspan x="46.64" y="0" class="st0 st3 st5">A</tspan><tspan x="52.37" y="0" class="st0 st3 st5">wards for 2017 and 2018 </tspan></text>
	<text transform="matrix(1 0 0 1 210.4824 263.728)" class="st7"><tspan x="0" y="0" class="st0 st3 st5">2018 Ram Pride Shop </tspan><tspan x="89.1" y="0" class="st0 st3 st5">A</tspan><tspan x="94.83" y="0" class="st0 st3 st5">ward</tspan></text>
	<text transform="matrix(1 0 0 1 210.4824 299.6724)" class="st9 st4 st2">JOB EXPERIENCE </text>
	<text transform="matrix(1 0 0 1 210.4824 319.3882)" class="st7"><tspan x="0" y="0" class="st0 st8 st2">P</tspan><tspan x="6.94" y="0" class="st0 st8 st2">r</tspan><tspan x="10.57" y="0" class="st0 st8 st2">oduction </tspan><tspan x="55.87" y="0" class="st0 st8 st2">Z</tspan><tspan x="62.32" y="0" class="st0 st8 st2">one Leader | </tspan><tspan x="124.51" y="0" class="st0 st8 st2">P</tspan><tspan x="131.39" y="0" class="st0 st8 st2">ane</tspan><tspan x="149.12" y="0" class="st0 st8 st2">r</tspan><tspan x="152.78" y="0" class="st0 st8 st2">a Bread </tspan></text>
	<text transform="matrix(1 0 0 1 210.4824 334.2153)" class="st7"><tspan x="0" y="0" class="st0 st3 st10">April 2018 – Ma</tspan><tspan x="70.61" y="0" class="st0 st3 st10">r</tspan><tspan x="73.86" y="0" class="st0 st3 st10">ch 2020</tspan></text>
	<text transform="matrix(1 0 0 1 210.4824 348.1401)" class="st7"><tspan x="0" y="0" class="st0 st3 st5">As pa</tspan><tspan x="22.79" y="0" class="st0 st3 st5">r</tspan><tspan x="26.06" y="0" class="st0 st3 st5">t of the management team, I p</tspan><tspan x="146.64" y="0" class="st0 st3 st5">r</tspan><tspan x="149.58" y="0" class="st0 st3 st5">o</tspan><tspan x="154.67" y="0" class="st0 st3 st5">vide guidance and instruction </tspan></text>
	<text transform="matrix(1 0 0 1 210.4824 358.9917)" class="st7"><tspan x="0" y="0" class="st0 st3 st5">t</tspan><tspan x="2.87" y="0" class="st0 st3 st5">o associates, as well as manage and maintain the quality of p</tspan><tspan x="248.69" y="0" class="st0 st3 st5">r</tspan><tspan x="251.58" y="0" class="st0 st3 st5">oducts </tspan></text>
	<text transform="matrix(1 0 0 1 491.958 381.5981)" class="st9 st3 st5"> </text>
	<text transform="matrix(1 0 0 1 210.4824 369.3003)" class="st7"><tspan x="0" y="0" class="st0 st3 st5">and se</tspan><tspan x="26.7" y="0" class="st0 st3 st5">r</tspan><tspan x="29.82" y="0" class="st0 st3 st5">vices p</tspan><tspan x="57.9" y="0" class="st0 st3 st5">r</tspan><tspan x="60.86" y="0" class="st0 st3 st5">o</tspan><tspan x="65.96" y="0" class="st0 st3 st5">vided </tspan><tspan x="89.76" y="0" class="st0 st3 st5">t</tspan><tspan x="92.62" y="0" class="st0 st3 st5">o cus</tspan><tspan x="114.4" y="0" class="st0 st3 st5">t</tspan><tspan x="117.27" y="0" class="st0 st3 st5">omers.  </tspan></text>
	<text transform="matrix(1 0 0 1 210.4824 398.0547)" class="st7"><tspan x="0" y="0" class="st0 st8 st2">Assistant Catering Coordina</tspan><tspan x="136.53" y="0" class="st0 st8 st2">t</tspan><tspan x="139.98" y="0" class="st0 st8 st2">or | </tspan><tspan x="158.1" y="0" class="st0 st8 st2">P</tspan><tspan x="164.98" y="0" class="st0 st8 st2">ane</tspan><tspan x="182.71" y="0" class="st0 st8 st2">r</tspan><tspan x="186.37" y="0" class="st0 st8 st2">a Bread </tspan></text>
	<text transform="matrix(1 0 0 1 210.4824 413.7891)" class="st9 st11 st10">May 2019 – September 2019 </text>
	<text transform="matrix(1 0 0 1 210.4824 428.6191)" class="st7"><tspan x="0" y="0" class="st0 st3 st5">I was responsible for catering </tspan><tspan x="120.75" y="0" class="st0 st3 st5">e</tspan><tspan x="125.45" y="0" class="st0 st3 st5">vents and business meetings for the </tspan></text>
	<text transform="matrix(1 0 0 1 210.4824 439.4697)" class="st7"><tspan x="0" y="0" class="st0 st3 st5">summer of 2019. I would prepare, deliver and present large meals </tspan><tspan x="264.56" y="0" class="st0 st3 st5">t</tspan><tspan x="267.37" y="0" class="st0 st3 st5">o </tspan></text>
	<path class="st9" d="M210.88,448.25c0-0.47,0.09-0.89,0.28-1.26c0.18-0.37,0.44-0.66,0.77-0.87c0.33-0.2,0.7-0.3,1.12-0.3
		c0.65,0,1.18,0.23,1.58,0.68c0.4,0.45,0.6,1.05,0.6,1.8v0.06c0,0.47-0.09,0.88-0.27,1.25c-0.18,0.37-0.43,0.66-0.76,0.86
		c-0.33,0.21-0.71,0.31-1.14,0.31c-0.65,0-1.17-0.23-1.57-0.68c-0.4-0.45-0.6-1.05-0.6-1.79V448.25z M211.71,448.35
		c0,0.53,0.12,0.96,0.37,1.28c0.25,0.32,0.57,0.48,0.99,0.48c0.42,0,0.74-0.16,0.99-0.49c0.24-0.33,0.37-0.78,0.37-1.37
		c0-0.52-0.12-0.95-0.37-1.27c-0.25-0.33-0.58-0.49-0.99-0.49c-0.4,0-0.73,0.16-0.98,0.48
		C211.83,447.29,211.71,447.75,211.71,448.35z M216.66,450.68v-4.15h-0.76v-0.63h0.76v-0.49c0-0.51,0.14-0.91,0.41-1.19
		c0.27-0.28,0.66-0.42,1.16-0.42c0.19,0,0.38,0.02,0.56,0.07l-0.04,0.66c-0.14-0.03-0.29-0.04-0.44-0.04
		c-0.26,0-0.47,0.08-0.61,0.23c-0.14,0.15-0.22,0.38-0.22,0.67v0.5h1.02v0.63h-1.02v4.15H216.66z M219.67,450.68v-4.15h-0.76v-0.63
		h0.76v-0.41c0-0.53,0.15-0.95,0.46-1.25c0.3-0.3,0.74-0.45,1.29-0.45c0.33,0,0.75,0.09,1.25,0.27l-0.14,0.69
		c-0.37-0.15-0.72-0.22-1.05-0.22c-0.35,0-0.6,0.08-0.76,0.24c-0.15,0.16-0.23,0.39-0.23,0.71v0.42h0.98v0.63h-0.98v4.15H219.67z
		 M223.07,450.68h-0.82v-4.78h0.82V450.68z M226.32,450.1c0.29,0,0.55-0.09,0.76-0.26c0.22-0.18,0.34-0.4,0.36-0.66h0.77
		c-0.01,0.27-0.11,0.53-0.28,0.78c-0.17,0.25-0.41,0.44-0.7,0.59c-0.29,0.15-0.6,0.22-0.92,0.22c-0.65,0-1.17-0.22-1.55-0.65
		c-0.38-0.43-0.58-1.03-0.58-1.78v-0.14c0-0.47,0.09-0.88,0.26-1.24c0.17-0.36,0.42-0.64,0.74-0.84c0.32-0.2,0.7-0.3,1.13-0.3
		c0.54,0,0.98,0.16,1.34,0.48c0.35,0.32,0.54,0.74,0.57,1.25h-0.77c-0.02-0.31-0.14-0.56-0.35-0.76c-0.21-0.2-0.47-0.3-0.78-0.3
		c-0.42,0-0.74,0.15-0.96,0.45c-0.23,0.3-0.34,0.73-0.34,1.3v0.15c0,0.55,0.11,0.97,0.34,1.27
		C225.57,449.96,225.9,450.1,226.32,450.1z M232.92,449.85c-0.4,0.62-1,0.92-1.8,0.92c-0.65,0-1.17-0.21-1.58-0.64
		c-0.41-0.43-0.61-0.99-0.61-1.71v-0.15c0-0.47,0.09-0.9,0.27-1.27c0.18-0.37,0.43-0.66,0.76-0.87c0.33-0.21,0.68-0.32,1.06-0.32
		c0.62,0,1.1,0.2,1.45,0.61c0.34,0.41,0.52,0.99,0.52,1.76v0.34h-3.24c0.01,0.47,0.15,0.85,0.41,1.14c0.26,0.29,0.6,0.43,1,0.43
		c0.29,0,0.53-0.06,0.73-0.18c0.2-0.12,0.38-0.27,0.53-0.47L232.92,449.85L232.92,449.85z M231.01,446.49
		c-0.33,0-0.61,0.12-0.83,0.36c-0.22,0.24-0.36,0.58-0.42,1.01h2.39v-0.06c-0.02-0.42-0.14-0.74-0.34-0.96
		C231.62,446.6,231.35,446.49,231.01,446.49z M236.71,449.42c0-0.22-0.08-0.39-0.25-0.51c-0.17-0.12-0.46-0.23-0.87-0.32
		c-0.41-0.09-0.74-0.19-0.98-0.32s-0.42-0.27-0.54-0.44c-0.12-0.17-0.17-0.37-0.17-0.61c0-0.39,0.17-0.72,0.5-0.99
		c0.33-0.27,0.75-0.41,1.27-0.41c0.54,0,0.98,0.14,1.32,0.42c0.34,0.28,0.51,0.64,0.51,1.07h-0.82c0-0.22-0.09-0.42-0.28-0.58
		c-0.19-0.16-0.43-0.24-0.72-0.24c-0.3,0-0.53,0.06-0.7,0.19c-0.17,0.13-0.25,0.3-0.25,0.51c0,0.2,0.08,0.35,0.23,0.45
		c0.16,0.1,0.44,0.2,0.85,0.29c0.41,0.09,0.74,0.2,0.99,0.33c0.25,0.13,0.44,0.28,0.56,0.46c0.12,0.18,0.18,0.4,0.18,0.65
		c0,0.43-0.17,0.77-0.51,1.03c-0.34,0.26-0.78,0.39-1.33,0.39c-0.38,0-0.72-0.07-1.02-0.2c-0.29-0.14-0.52-0.32-0.69-0.57
		c-0.17-0.24-0.25-0.51-0.25-0.79h0.82c0.01,0.27,0.12,0.49,0.33,0.65c0.2,0.16,0.47,0.24,0.81,0.24c0.31,0,0.56-0.06,0.74-0.19
		C236.61,449.79,236.71,449.62,236.71,449.42z M243.78,450.68c-0.05-0.09-0.09-0.26-0.11-0.5c-0.38,0.39-0.83,0.59-1.36,0.59
		c-0.47,0-0.86-0.13-1.16-0.4c-0.3-0.27-0.45-0.6-0.45-1.01c0-0.5,0.19-0.88,0.57-1.16c0.38-0.28,0.91-0.41,1.6-0.41h0.79v-0.38
		c0-0.29-0.09-0.51-0.26-0.68c-0.17-0.17-0.42-0.25-0.76-0.25c-0.29,0-0.54,0.07-0.73,0.22c-0.2,0.15-0.3,0.33-0.3,0.53h-0.82
		c0-0.24,0.08-0.47,0.25-0.69c0.17-0.22,0.4-0.4,0.69-0.53c0.29-0.13,0.61-0.19,0.96-0.19c0.55,0,0.98,0.14,1.29,0.41
		c0.31,0.28,0.47,0.65,0.49,1.14v2.2c0,0.44,0.06,0.79,0.17,1.05v0.07H243.78z M242.43,450.06c0.26,0,0.5-0.07,0.73-0.2
		c0.23-0.13,0.4-0.3,0.5-0.52v-0.98h-0.64c-1,0-1.5,0.29-1.5,0.88c0,0.26,0.09,0.46,0.26,0.6
		C241.94,449.99,242.16,450.06,242.43,450.06z M246.52,445.91l0.03,0.6c0.36-0.46,0.84-0.69,1.43-0.69c1.01,0,1.52,0.57,1.53,1.71
		v3.16h-0.82v-3.16c0-0.34-0.08-0.6-0.24-0.76c-0.15-0.16-0.4-0.25-0.72-0.25c-0.26,0-0.5,0.07-0.7,0.21
		c-0.2,0.14-0.36,0.33-0.47,0.56v3.4h-0.82v-4.78H246.52z M250.54,448.25c0-0.73,0.17-1.32,0.52-1.77c0.35-0.45,0.8-0.67,1.36-0.67
		c0.56,0,1,0.19,1.33,0.57v-2.49h0.82v6.78h-0.75l-0.04-0.51c-0.33,0.4-0.78,0.6-1.36,0.6c-0.55,0-1-0.23-1.35-0.68
		c-0.35-0.45-0.52-1.04-0.52-1.77V448.25z M251.36,448.35c0,0.54,0.11,0.97,0.34,1.27c0.22,0.31,0.53,0.46,0.93,0.46
		c0.52,0,0.9-0.23,1.13-0.7v-2.19c-0.24-0.45-0.62-0.68-1.13-0.68c-0.4,0-0.71,0.15-0.94,0.46
		C251.47,447.28,251.36,447.74,251.36,448.35z M260,450.1c0.29,0,0.55-0.09,0.76-0.26c0.22-0.18,0.34-0.4,0.36-0.66h0.77
		c-0.01,0.27-0.11,0.53-0.28,0.78c-0.17,0.25-0.41,0.44-0.7,0.59c-0.29,0.15-0.6,0.22-0.92,0.22c-0.65,0-1.17-0.22-1.55-0.65
		c-0.38-0.43-0.58-1.03-0.58-1.78v-0.14c0-0.47,0.09-0.88,0.26-1.24c0.17-0.36,0.42-0.64,0.74-0.84c0.32-0.2,0.7-0.3,1.13-0.3
		c0.54,0,0.98,0.16,1.34,0.48c0.35,0.32,0.54,0.74,0.57,1.25h-0.77c-0.02-0.31-0.14-0.56-0.35-0.76c-0.21-0.2-0.47-0.3-0.78-0.3
		c-0.42,0-0.74,0.15-0.96,0.45c-0.23,0.3-0.34,0.73-0.34,1.3v0.15c0,0.55,0.11,0.97,0.34,1.27C259.26,449.96,259.58,450.1,260,450.1
		z M263.7,450.68h-0.82v-6.78h0.82V450.68z M265.02,444.64c0-0.13,0.04-0.24,0.12-0.34c0.08-0.09,0.2-0.14,0.36-0.14
		c0.16,0,0.28,0.05,0.36,0.14c0.08,0.09,0.12,0.2,0.12,0.34c0,0.13-0.04,0.24-0.12,0.33c-0.08,0.09-0.2,0.13-0.36,0.13
		c-0.16,0-0.28-0.04-0.36-0.13C265.06,444.88,265.02,444.77,265.02,444.64z M265.9,450.68h-0.82v-4.78h0.82V450.68z M270.99,449.85
		c-0.4,0.62-1,0.92-1.8,0.92c-0.65,0-1.17-0.21-1.58-0.64c-0.41-0.43-0.61-0.99-0.61-1.71v-0.15c0-0.47,0.09-0.9,0.27-1.27
		c0.18-0.37,0.43-0.66,0.76-0.87c0.33-0.21,0.68-0.32,1.06-0.32c0.62,0,1.1,0.2,1.45,0.61c0.34,0.41,0.52,0.99,0.52,1.76v0.34h-3.24
		c0.01,0.47,0.15,0.85,0.41,1.14c0.26,0.29,0.6,0.43,1,0.43c0.29,0,0.53-0.06,0.73-0.18c0.2-0.12,0.38-0.27,0.53-0.47L270.99,449.85
		L270.99,449.85z M269.09,446.49c-0.33,0-0.61,0.12-0.83,0.36c-0.22,0.24-0.36,0.58-0.42,1.01h2.39v-0.06
		c-0.02-0.42-0.14-0.74-0.34-0.96C269.7,446.6,269.43,446.49,269.09,446.49z M272.77,445.91l0.03,0.6c0.36-0.46,0.84-0.69,1.43-0.69
		c1.01,0,1.52,0.57,1.53,1.71v3.16h-0.82v-3.16c0-0.34-0.08-0.6-0.24-0.76c-0.15-0.16-0.4-0.25-0.72-0.25c-0.26,0-0.5,0.07-0.7,0.21
		c-0.2,0.14-0.36,0.33-0.47,0.56v3.4H272v-4.78H272.77z M278.1,444.75v1.16h0.89v0.63h-0.89v2.97c0,0.19,0.04,0.34,0.12,0.43
		c0.08,0.1,0.21,0.14,0.41,0.14c0.09,0,0.22-0.02,0.39-0.05v0.66c-0.21,0.06-0.42,0.09-0.63,0.09c-0.37,0-0.64-0.11-0.83-0.33
		c-0.19-0.22-0.28-0.53-0.28-0.94v-2.96h-0.87v-0.63h0.87v-1.16H278.1z M282.73,449.42c0-0.22-0.08-0.39-0.25-0.51
		c-0.17-0.12-0.46-0.23-0.87-0.32c-0.41-0.09-0.74-0.19-0.98-0.32c-0.24-0.12-0.42-0.27-0.54-0.44c-0.12-0.17-0.17-0.37-0.17-0.61
		c0-0.39,0.17-0.72,0.5-0.99c0.33-0.27,0.75-0.41,1.27-0.41c0.54,0,0.98,0.14,1.32,0.42c0.34,0.28,0.51,0.64,0.51,1.07h-0.82
		c0-0.22-0.09-0.42-0.28-0.58c-0.19-0.16-0.43-0.24-0.72-0.24c-0.3,0-0.53,0.06-0.7,0.19c-0.17,0.13-0.25,0.3-0.25,0.51
		c0,0.2,0.08,0.35,0.23,0.45c0.16,0.1,0.44,0.2,0.85,0.29c0.41,0.09,0.74,0.2,0.99,0.33c0.25,0.13,0.44,0.28,0.56,0.46
		c0.12,0.18,0.18,0.4,0.18,0.65c0,0.43-0.17,0.77-0.51,1.03c-0.34,0.26-0.78,0.39-1.33,0.39c-0.38,0-0.72-0.07-1.02-0.2
		c-0.29-0.14-0.52-0.32-0.69-0.57c-0.17-0.24-0.25-0.51-0.25-0.79h0.82c0.01,0.27,0.12,0.49,0.33,0.65c0.2,0.16,0.47,0.24,0.81,0.24
		c0.31,0,0.56-0.06,0.74-0.19C282.64,449.79,282.73,449.62,282.73,449.42z M289.81,450.68c-0.05-0.09-0.09-0.26-0.11-0.5
		c-0.38,0.39-0.83,0.59-1.36,0.59c-0.47,0-0.86-0.13-1.16-0.4c-0.3-0.27-0.45-0.6-0.45-1.01c0-0.5,0.19-0.88,0.57-1.16
		c0.38-0.28,0.91-0.41,1.6-0.41h0.79v-0.38c0-0.29-0.09-0.51-0.26-0.68c-0.17-0.17-0.42-0.25-0.76-0.25c-0.29,0-0.54,0.07-0.73,0.22
		c-0.2,0.15-0.3,0.33-0.3,0.53h-0.82c0-0.24,0.08-0.47,0.25-0.69c0.17-0.22,0.4-0.4,0.69-0.53c0.29-0.13,0.61-0.19,0.96-0.19
		c0.55,0,0.98,0.14,1.29,0.41c0.31,0.28,0.47,0.65,0.49,1.14v2.2c0,0.44,0.06,0.79,0.17,1.05v0.07H289.81z M288.45,450.06
		c0.26,0,0.5-0.07,0.73-0.2c0.23-0.13,0.4-0.3,0.5-0.52v-0.98h-0.64c-1,0-1.5,0.29-1.5,0.88c0,0.26,0.09,0.46,0.26,0.6
		C287.97,449.99,288.19,450.06,288.45,450.06z M292.89,444.75v1.16h0.89v0.63h-0.89v2.97c0,0.19,0.04,0.34,0.12,0.43
		c0.08,0.1,0.21,0.14,0.41,0.14c0.09,0,0.22-0.02,0.39-0.05v0.66c-0.21,0.06-0.42,0.09-0.63,0.09c-0.37,0-0.64-0.11-0.83-0.33
		c-0.19-0.22-0.28-0.53-0.28-0.94v-2.96h-0.87v-0.63h0.87v-1.16H292.89z M298.09,444.75v1.16h0.89v0.63h-0.89v2.97
		c0,0.19,0.04,0.34,0.12,0.43c0.08,0.1,0.21,0.14,0.41,0.14c0.09,0,0.22-0.02,0.39-0.05v0.66c-0.21,0.06-0.42,0.09-0.63,0.09
		c-0.37,0-0.64-0.11-0.83-0.33c-0.19-0.22-0.28-0.53-0.28-0.94v-2.96h-0.87v-0.63h0.87v-1.16H298.09z M300.75,446.48
		c0.36-0.44,0.83-0.67,1.41-0.67c1.01,0,1.52,0.57,1.53,1.71v3.16h-0.82v-3.16c0-0.34-0.08-0.6-0.24-0.76
		c-0.15-0.16-0.4-0.25-0.72-0.25c-0.26,0-0.5,0.07-0.7,0.21c-0.2,0.14-0.36,0.33-0.47,0.56v3.4h-0.82v-6.78h0.82V446.48z
		 M308.7,449.85c-0.4,0.62-1,0.92-1.8,0.92c-0.65,0-1.17-0.21-1.58-0.64c-0.41-0.43-0.61-0.99-0.61-1.71v-0.15
		c0-0.47,0.09-0.9,0.27-1.27c0.18-0.37,0.43-0.66,0.76-0.87c0.33-0.21,0.68-0.32,1.06-0.32c0.62,0,1.1,0.2,1.45,0.61
		c0.34,0.41,0.52,0.99,0.52,1.76v0.34h-3.24c0.01,0.47,0.15,0.85,0.41,1.14c0.26,0.29,0.6,0.43,1,0.43c0.29,0,0.53-0.06,0.73-0.18
		c0.2-0.12,0.38-0.27,0.53-0.47L308.7,449.85L308.7,449.85z M306.8,446.49c-0.33,0-0.61,0.12-0.83,0.36
		c-0.22,0.24-0.36,0.58-0.42,1.01h2.39v-0.06c-0.02-0.42-0.14-0.74-0.34-0.96C307.41,446.6,307.14,446.49,306.8,446.49z
		 M313.06,444.75v1.16h0.89v0.63h-0.89v2.97c0,0.19,0.04,0.34,0.12,0.43c0.08,0.1,0.21,0.14,0.41,0.14c0.09,0,0.22-0.02,0.39-0.05
		v0.66c-0.21,0.06-0.42,0.09-0.63,0.09c-0.37,0-0.64-0.11-0.83-0.33c-0.19-0.22-0.28-0.53-0.28-0.94v-2.96h-0.87v-0.63h0.87v-1.16
		H313.06z M314.91,444.64c0-0.13,0.04-0.24,0.12-0.34c0.08-0.09,0.2-0.14,0.36-0.14c0.16,0,0.28,0.05,0.36,0.14
		c0.08,0.09,0.12,0.2,0.12,0.34c0,0.13-0.04,0.24-0.12,0.33c-0.08,0.09-0.2,0.13-0.36,0.13c-0.16,0-0.28-0.04-0.36-0.13
		C314.95,444.88,314.91,444.77,314.91,444.64z M315.8,450.68h-0.82v-4.78h0.82V450.68z M317.87,445.91l0.02,0.53
		c0.35-0.41,0.82-0.62,1.42-0.62c0.67,0,1.12,0.26,1.36,0.77c0.16-0.23,0.37-0.42,0.62-0.56c0.25-0.14,0.56-0.21,0.9-0.21
		c1.05,0,1.58,0.55,1.6,1.66v3.2h-0.82v-3.15c0-0.34-0.08-0.6-0.23-0.77c-0.16-0.17-0.42-0.25-0.79-0.25c-0.3,0-0.55,0.09-0.76,0.27
		c-0.2,0.18-0.32,0.42-0.35,0.73v3.17h-0.82v-3.13c0-0.69-0.34-1.04-1.02-1.04c-0.54,0-0.9,0.23-1.1,0.68v3.49h-0.82v-4.78H317.87z
		 M328.81,449.85c-0.4,0.62-1,0.92-1.8,0.92c-0.65,0-1.17-0.21-1.58-0.64c-0.41-0.43-0.61-0.99-0.61-1.71v-0.15
		c0-0.47,0.09-0.9,0.27-1.27c0.18-0.37,0.43-0.66,0.76-0.87c0.33-0.21,0.68-0.32,1.06-0.32c0.62,0,1.1,0.2,1.45,0.61
		c0.34,0.41,0.52,0.99,0.52,1.76v0.34h-3.24c0.01,0.47,0.15,0.85,0.41,1.14c0.26,0.29,0.6,0.43,1,0.43c0.29,0,0.53-0.06,0.73-0.18
		c0.2-0.12,0.38-0.27,0.53-0.47L328.81,449.85L328.81,449.85z M326.91,446.49c-0.33,0-0.61,0.12-0.83,0.36
		c-0.22,0.24-0.36,0.58-0.42,1.01h2.39v-0.06c-0.02-0.42-0.14-0.74-0.34-0.96C327.52,446.6,327.25,446.49,326.91,446.49z
		 M333.17,444.75v1.16h0.89v0.63h-0.89v2.97c0,0.19,0.04,0.34,0.12,0.43c0.08,0.1,0.21,0.14,0.41,0.14c0.09,0,0.22-0.02,0.39-0.05
		v0.66c-0.21,0.06-0.42,0.09-0.63,0.09c-0.37,0-0.64-0.11-0.83-0.33c-0.19-0.22-0.28-0.53-0.28-0.94v-2.96h-0.87v-0.63h0.87v-1.16
		H333.17z M335.84,446.48c0.36-0.44,0.83-0.67,1.41-0.67c1.01,0,1.52,0.57,1.53,1.71v3.16h-0.82v-3.16c0-0.34-0.08-0.6-0.24-0.76
		c-0.15-0.16-0.4-0.25-0.72-0.25c-0.26,0-0.5,0.07-0.7,0.21c-0.2,0.14-0.36,0.33-0.47,0.56v3.4h-0.82v-6.78h0.82V446.48z
		 M343.79,449.85c-0.4,0.62-1,0.92-1.8,0.92c-0.65,0-1.17-0.21-1.58-0.64c-0.41-0.43-0.61-0.99-0.61-1.71v-0.15
		c0-0.47,0.09-0.9,0.27-1.27c0.18-0.37,0.43-0.66,0.76-0.87c0.33-0.21,0.68-0.32,1.06-0.32c0.62,0,1.1,0.2,1.45,0.61
		c0.34,0.41,0.52,0.99,0.52,1.76v0.34h-3.24c0.01,0.47,0.15,0.85,0.41,1.14c0.26,0.29,0.6,0.43,1,0.43c0.29,0,0.53-0.06,0.73-0.18
		c0.2-0.12,0.38-0.27,0.53-0.47L343.79,449.85L343.79,449.85z M341.88,446.49c-0.33,0-0.61,0.12-0.83,0.36
		c-0.22,0.24-0.36,0.58-0.42,1.01h2.39v-0.06c-0.02-0.42-0.14-0.74-0.34-0.96C342.5,446.6,342.22,446.49,341.88,446.49z
		 M346.36,449.49l1.11-3.58h0.87l-1.92,5.51c-0.3,0.79-0.77,1.19-1.42,1.19l-0.15-0.01l-0.3-0.06v-0.66l0.22,0.02
		c0.28,0,0.49-0.06,0.65-0.17c0.15-0.11,0.28-0.32,0.38-0.61l0.18-0.49l-1.7-4.72h0.89L346.36,449.49z M352.13,446.48
		c0.36-0.44,0.83-0.67,1.41-0.67c1.01,0,1.52,0.57,1.53,1.71v3.16h-0.82v-3.16c0-0.34-0.08-0.6-0.24-0.76
		c-0.15-0.16-0.4-0.25-0.72-0.25c-0.26,0-0.5,0.07-0.7,0.21c-0.2,0.14-0.36,0.33-0.47,0.56v3.4h-0.82v-6.78h0.82V446.48z
		 M359.25,450.68c-0.05-0.09-0.09-0.26-0.11-0.5c-0.38,0.39-0.83,0.59-1.36,0.59c-0.47,0-0.86-0.13-1.16-0.4
		c-0.3-0.27-0.45-0.6-0.45-1.01c0-0.5,0.19-0.88,0.57-1.16c0.38-0.28,0.91-0.41,1.6-0.41h0.79v-0.38c0-0.29-0.09-0.51-0.26-0.68
		c-0.17-0.17-0.42-0.25-0.76-0.25c-0.29,0-0.54,0.07-0.73,0.22c-0.2,0.15-0.3,0.33-0.3,0.53h-0.82c0-0.24,0.08-0.47,0.25-0.69
		c0.17-0.22,0.4-0.4,0.69-0.53c0.29-0.13,0.61-0.19,0.96-0.19c0.55,0,0.98,0.14,1.29,0.41c0.31,0.28,0.47,0.65,0.49,1.14v2.2
		c0,0.44,0.06,0.79,0.17,1.05v0.07H359.25z M357.89,450.06c0.26,0,0.5-0.07,0.73-0.2c0.23-0.13,0.4-0.3,0.5-0.52v-0.98h-0.64
		c-1,0-1.5,0.29-1.5,0.88c0,0.26,0.09,0.46,0.26,0.6C357.4,449.99,357.62,450.06,357.89,450.06z M361.02,448.25
		c0-0.73,0.17-1.32,0.52-1.77c0.35-0.45,0.8-0.67,1.36-0.67c0.56,0,1,0.19,1.33,0.57v-2.49h0.82v6.78h-0.75l-0.04-0.51
		c-0.33,0.4-0.78,0.6-1.36,0.6c-0.55,0-1-0.23-1.35-0.68c-0.35-0.45-0.52-1.04-0.52-1.77V448.25z M361.83,448.35
		c0,0.54,0.11,0.97,0.34,1.27c0.22,0.31,0.53,0.46,0.93,0.46c0.52,0,0.9-0.23,1.13-0.7v-2.19c-0.24-0.45-0.62-0.68-1.13-0.68
		c-0.4,0-0.71,0.15-0.94,0.46C361.95,447.28,361.83,447.74,361.83,448.35z M370.87,446.64c-0.12-0.02-0.26-0.03-0.4-0.03
		c-0.54,0-0.9,0.23-1.09,0.68v3.39h-0.82v-4.78h0.79l0.01,0.55c0.27-0.43,0.65-0.64,1.14-0.64c0.16,0,0.28,0.02,0.36,0.06V446.64z
		 M375.4,449.85c-0.4,0.62-1,0.92-1.8,0.92c-0.65,0-1.17-0.21-1.58-0.64c-0.41-0.43-0.61-0.99-0.61-1.71v-0.15
		c0-0.47,0.09-0.9,0.27-1.27c0.18-0.37,0.43-0.66,0.76-0.87c0.33-0.21,0.68-0.32,1.06-0.32c0.62,0,1.1,0.2,1.45,0.61
		c0.34,0.41,0.52,0.99,0.52,1.76v0.34h-3.24c0.01,0.47,0.15,0.85,0.41,1.14c0.26,0.29,0.6,0.43,1,0.43c0.29,0,0.53-0.06,0.73-0.18
		c0.2-0.12,0.38-0.27,0.53-0.47L375.4,449.85L375.4,449.85z M373.5,446.49c-0.33,0-0.61,0.12-0.83,0.36
		c-0.22,0.24-0.36,0.58-0.42,1.01h2.39v-0.06c-0.02-0.42-0.14-0.74-0.34-0.96C374.11,446.6,373.84,446.49,373.5,446.49z
		 M376.21,448.25c0-0.75,0.17-1.34,0.52-1.78c0.34-0.44,0.81-0.66,1.39-0.66c0.57,0,1.01,0.19,1.34,0.57l0.04-0.48h0.75v6.61h-0.82
		v-2.28c-0.33,0.35-0.77,0.53-1.32,0.53c-0.58,0-1.04-0.22-1.38-0.67c-0.34-0.45-0.51-1.04-0.51-1.79V448.25z M377.03,448.35
		c0,0.55,0.12,0.98,0.35,1.29c0.23,0.31,0.54,0.47,0.93,0.47c0.49,0,0.86-0.21,1.11-0.64v-2.34c-0.26-0.42-0.63-0.63-1.1-0.63
		c-0.39,0-0.71,0.16-0.94,0.47C377.14,447.27,377.03,447.73,377.03,448.35z M384.49,450.21c-0.32,0.37-0.78,0.56-1.4,0.56
		c-0.51,0-0.9-0.15-1.16-0.44c-0.27-0.3-0.4-0.73-0.4-1.31v-3.11h0.82v3.09c0,0.72,0.29,1.09,0.88,1.09c0.62,0,1.04-0.23,1.25-0.7
		v-3.47h0.82v4.78h-0.78L384.49,450.21z M390.31,449.85c-0.4,0.62-1,0.92-1.8,0.92c-0.65,0-1.17-0.21-1.58-0.64
		c-0.41-0.43-0.61-0.99-0.61-1.71v-0.15c0-0.47,0.09-0.9,0.27-1.27c0.18-0.37,0.43-0.66,0.76-0.87c0.33-0.21,0.68-0.32,1.06-0.32
		c0.62,0,1.1,0.2,1.45,0.61c0.34,0.41,0.52,0.99,0.52,1.76v0.34h-3.24c0.01,0.47,0.15,0.85,0.41,1.14c0.26,0.29,0.6,0.43,1,0.43
		c0.29,0,0.53-0.06,0.73-0.18c0.2-0.12,0.38-0.27,0.53-0.47L390.31,449.85L390.31,449.85z M388.41,446.49
		c-0.33,0-0.61,0.12-0.83,0.36c-0.22,0.24-0.36,0.58-0.42,1.01h2.39v-0.06c-0.02-0.42-0.14-0.74-0.34-0.96
		C389.02,446.6,388.75,446.49,388.41,446.49z M394.1,449.42c0-0.22-0.08-0.39-0.25-0.51c-0.17-0.12-0.46-0.23-0.87-0.32
		c-0.41-0.09-0.74-0.19-0.98-0.32c-0.24-0.12-0.42-0.27-0.54-0.44c-0.12-0.17-0.17-0.37-0.17-0.61c0-0.39,0.17-0.72,0.5-0.99
		c0.33-0.27,0.75-0.41,1.27-0.41c0.54,0,0.98,0.14,1.32,0.42c0.34,0.28,0.51,0.64,0.51,1.07h-0.82c0-0.22-0.09-0.42-0.28-0.58
		c-0.19-0.16-0.43-0.24-0.72-0.24c-0.3,0-0.53,0.06-0.7,0.19c-0.17,0.13-0.25,0.3-0.25,0.51c0,0.2,0.08,0.35,0.23,0.45
		c0.16,0.1,0.44,0.2,0.85,0.29c0.41,0.09,0.74,0.2,0.99,0.33c0.25,0.13,0.44,0.28,0.56,0.46c0.12,0.18,0.18,0.4,0.18,0.65
		c0,0.43-0.17,0.77-0.51,1.03c-0.34,0.26-0.78,0.39-1.33,0.39c-0.38,0-0.72-0.07-1.02-0.2c-0.29-0.14-0.52-0.32-0.69-0.57
		c-0.17-0.24-0.25-0.51-0.25-0.79h0.82c0.01,0.27,0.12,0.49,0.33,0.65c0.2,0.16,0.47,0.24,0.81,0.24c0.31,0,0.56-0.06,0.74-0.19
		C394.01,449.79,394.1,449.62,394.1,449.42z M397.09,444.75v1.16h0.89v0.63h-0.89v2.97c0,0.19,0.04,0.34,0.12,0.43
		c0.08,0.1,0.21,0.14,0.41,0.14c0.09,0,0.22-0.02,0.39-0.05v0.66c-0.21,0.06-0.42,0.09-0.63,0.09c-0.37,0-0.64-0.11-0.83-0.33
		c-0.19-0.22-0.28-0.53-0.28-0.94v-2.96h-0.87v-0.63h0.87v-1.16H397.09z M402.73,449.85c-0.4,0.62-1,0.92-1.8,0.92
		c-0.65,0-1.17-0.21-1.58-0.64c-0.41-0.43-0.61-0.99-0.61-1.71v-0.15c0-0.47,0.09-0.9,0.27-1.27c0.18-0.37,0.43-0.66,0.76-0.87
		c0.33-0.21,0.68-0.32,1.06-0.32c0.62,0,1.1,0.2,1.45,0.61c0.34,0.41,0.52,0.99,0.52,1.76v0.34h-3.24c0.01,0.47,0.15,0.85,0.41,1.14
		c0.26,0.29,0.6,0.43,1,0.43c0.29,0,0.53-0.06,0.73-0.18c0.2-0.12,0.38-0.27,0.53-0.47L402.73,449.85L402.73,449.85z M400.82,446.49
		c-0.33,0-0.61,0.12-0.83,0.36c-0.22,0.24-0.36,0.58-0.42,1.01h2.39v-0.06c-0.02-0.42-0.14-0.74-0.34-0.96
		C401.43,446.6,401.16,446.49,400.82,446.49z M403.54,448.25c0-0.73,0.17-1.32,0.52-1.77c0.35-0.45,0.8-0.67,1.36-0.67
		c0.56,0,1,0.19,1.33,0.57v-2.49h0.82v6.78h-0.75l-0.04-0.51c-0.33,0.4-0.78,0.6-1.36,0.6c-0.55,0-1-0.23-1.35-0.68
		c-0.35-0.45-0.52-1.04-0.52-1.77V448.25z M404.35,448.35c0,0.54,0.11,0.97,0.34,1.27c0.22,0.31,0.53,0.46,0.93,0.46
		c0.52,0,0.9-0.23,1.13-0.7v-2.19c-0.24-0.45-0.62-0.68-1.13-0.68c-0.4,0-0.71,0.15-0.94,0.46
		C404.46,447.28,404.35,447.74,404.35,448.35z M408.85,450.25c0-0.14,0.04-0.26,0.13-0.35c0.08-0.09,0.21-0.14,0.38-0.14
		s0.3,0.05,0.38,0.14c0.09,0.09,0.13,0.21,0.13,0.35c0,0.14-0.04,0.25-0.13,0.34c-0.09,0.09-0.21,0.14-0.38,0.14
		s-0.29-0.05-0.38-0.14C408.89,450.5,408.85,450.39,408.85,450.25z"/>
	<text transform="matrix(1 0 0 1 410.5215 450.6836)" class="st9 st3 st2">  </text>
	<text transform="matrix(1 0 0 1 210.4824 481.249)" class="st7"><tspan x="0" y="0" class="st0 st8 st2">Bi</tspan><tspan x="9.62" y="0" class="st0 st8 st2">r</tspan><tspan x="13.69" y="0" class="st0 st8 st2">thday </tspan><tspan x="43.3" y="0" class="st0 st8 st2">P</tspan><tspan x="50.19" y="0" class="st0 st8 st2">a</tspan><tspan x="56.06" y="0" class="st0 st8 st2">r</tspan><tspan x="60.13" y="0" class="st0 st8 st2">ty Host and Cashier | Chuck E. Chees</tspan><tspan x="238.78" y="0" class="st0 st8 st2">e</tspan><tspan x="244.27" y="0" class="st0 st8 st2 st12">’</tspan><tspan x="245.4" y="0" class="st0 st8 st2">s </tspan></text>
	<text transform="matrix(1 0 0 1 210.4824 497.8857)" class="st7"><tspan x="0" y="0" class="st0 st3 st10">April 2016 – N</tspan><tspan x="63.61" y="0" class="st0 st3 st10">o</tspan><tspan x="69.18" y="0" class="st0 st3 st10">vember 2017 </tspan></text>
	<text transform="matrix(1 0 0 1 210.4824 514.5225)" class="st7"><tspan x="0" y="0" class="st0 st3 st5">Along with completing food and retail t</tspan><tspan x="155.38" y="0" class="st0 st3 st5">r</tspan><tspan x="158.23" y="0" class="st0 st3 st5">ansactions, I also had the </tspan></text>
	<text transform="matrix(1 0 0 1 210.4824 527.5439)" class="st7"><tspan x="0" y="0" class="st0 st3 st5">responsibility </tspan><tspan x="55.72" y="0" class="st0 st3 st5">t</tspan><tspan x="58.56" y="0" class="st0 st3 st5">o se</tspan><tspan x="75.41" y="0" class="st0 st3 st5">r</tspan><tspan x="78.54" y="0" class="st0 st3 st5">ve, organize and host s</tspan><tspan x="170.53" y="0" class="st0 st3 st5">e</tspan><tspan x="175.24" y="0" class="st0 st3 st5">ve</tspan><tspan x="184.41" y="0" class="st0 st3 st5">r</tspan><tspan x="187.3" y="0" class="st0 st3 st5">al bi</tspan><tspan x="203.92" y="0" class="st0 st3 st5">r</tspan><tspan x="207.19" y="0" class="st0 st3 st5">thday pa</tspan><tspan x="241.65" y="0" class="st0 st3 st5">r</tspan><tspan x="244.92" y="0" class="st0 st3 st5">ties a day. </tspan></text>
	<g class="st7">
		<text transform="matrix(1 0 0 1 45.0791 143.6411)" class="st0 st4 st13">North Dartmouth, MA 02747</text>
	</g>
	<g class="st7">
		<text transform="matrix(1 0 0 1 67.5664 171.2837)" class="st0 st4 st13">rwarren2@umassd.edu</text>
	</g>
	<g class="st7">
		<text transform="matrix(1 0 0 1 99.5859 157.8931)" class="st0 st4 st13">(978) - 604 - 2123</text>
	</g>
</g>
</svg>
