<?xml version="1.0" encoding="utf-8"?>
<!-- Generator: Adobe Illustrator 24.3.0, SVG Export Plug-In . SVG Version: 6.00 Build 0)  -->
<svg version="1.1" xmlns="http://www.w3.org/2000/svg" xmlns:xlink="http://www.w3.org/1999/xlink" x="0px" y="0px"
	 viewBox="0 0 612 792" style="enable-background:new 0 0 612 792;" xml:space="preserve">
<style type="text/css">
	.st0{fill:#683B5F;}
	.st1{font-family:'Avenir-Heavy';}
	.st2{font-size:10.851px;}
	.st3{font-family:'Roboto-Regular';}
	.st4{font-size:17.1174px;}
	.st5{font-family:'Roboto-Black';}
	.st6{font-size:14.2645px;}
	.st7{display:none;}
	.st8{display:inline;}
	.st9{font-family:'Roboto-Medium';}
	.st10{display:inline;fill:#683B5F;}
	.st11{font-size:9.9468px;}
	.st12{font-size:9.0425px;}
	.st13{font-family:'Avenir-Medium';}
	.st14{letter-spacing:-1;}
	.st15{font-size:12.1283px;}
</style>
<g id="Layer_1">
	<text transform="matrix(1 0 0 1 530.6533 163.3608)" class="st0 st1 st2"> </text>
	<text transform="matrix(1 0 0 1 528.1714 525.4634)" class="st0 st3 st4">   </text>
	<text transform="matrix(1 0 0 1 74.0118 490.4419)"><tspan x="0" y="0" class="st0 st5 st4">SKILLS AND </tspan><tspan x="99.37" y="0" class="st0 st5 st4">A</tspan><tspan x="110.72" y="0" class="st0 st5 st4">W</tspan><tspan x="125.24" y="0" class="st0 st5 st4">ARDS</tspan></text>
	<text transform="matrix(1 0 0 1 74.0118 522.397)" class="st0 st3 st6">– Adobe InDesign</text>
	<text transform="matrix(1 0 0 1 74.0118 546.6489)"><tspan x="0" y="0" class="st0 st3 st6">– Adobe Illust</tspan><tspan x="88.15" y="0" class="st0 st3 st6">r</tspan><tspan x="92.69" y="0" class="st0 st3 st6">a</tspan><tspan x="100.45" y="0" class="st0 st3 st6">t</tspan><tspan x="104.98" y="0" class="st0 st3 st6">or</tspan></text>
	<text transform="matrix(1 0 0 1 74.0118 570.8989)"><tspan x="0" y="0" class="st0 st3 st6">– Adobe Pho</tspan><tspan x="82.46" y="0" class="st0 st3 st6">t</tspan><tspan x="86.99" y="0" class="st0 st3 st6">oshop</tspan></text>
	<text transform="matrix(1 0 0 1 74.5264 595.147)" class="st0 st3 st6">– Adobe XD</text>
	<text transform="matrix(1 0 0 1 74.0118 619.397)" class="st0 st3 st6">– Adobe Premiere </text>
	<path class="st0" d="M318.05,517.34h-6.98v-1.05h6.98V517.34z M331.82,517.13c0,0.99-0.17,1.86-0.5,2.6
		c-0.33,0.74-0.81,1.31-1.42,1.7c-0.61,0.39-1.33,0.59-2.15,0.59c-0.8,0-1.51-0.2-2.12-0.59c-0.62-0.39-1.1-0.95-1.44-1.68
		c-0.34-0.73-0.52-1.57-0.53-2.52v-0.73c0-0.98,0.17-1.84,0.51-2.58c0.34-0.75,0.82-1.32,1.44-1.72c0.62-0.4,1.33-0.6,2.13-0.6
		c0.81,0,1.53,0.2,2.15,0.59c0.62,0.39,1.1,0.96,1.43,1.71s0.5,1.61,0.5,2.6V517.13z M330.49,516.47c0-1.2-0.24-2.13-0.72-2.77
		c-0.48-0.64-1.16-0.96-2.03-0.96c-0.85,0-1.51,0.32-2,0.96c-0.49,0.64-0.73,1.54-0.75,2.68v0.75c0,1.17,0.24,2.08,0.73,2.75
		c0.49,0.67,1.16,1,2.02,1c0.86,0,1.53-0.31,2.01-0.94c0.47-0.63,0.72-1.53,0.73-2.71V516.47z M336.82,517.35
		c-1.15-0.33-1.98-0.73-2.5-1.22c-0.52-0.48-0.78-1.07-0.78-1.78c0-0.8,0.32-1.46,0.96-1.98c0.64-0.52,1.47-0.78,2.49-0.78
		c0.7,0,1.32,0.13,1.86,0.4c0.55,0.27,0.97,0.64,1.27,1.11s0.45,0.99,0.45,1.55h-1.34c0-0.62-0.2-1.1-0.59-1.45
		c-0.39-0.35-0.94-0.53-1.65-0.53c-0.66,0-1.17,0.15-1.54,0.44c-0.37,0.29-0.55,0.69-0.55,1.21c0,0.41,0.18,0.76,0.53,1.05
		c0.35,0.29,0.95,0.55,1.79,0.78s1.5,0.5,1.98,0.78c0.48,0.29,0.83,0.62,1.06,1c0.23,0.38,0.34,0.83,0.34,1.34
		c0,0.82-0.32,1.48-0.96,1.97s-1.5,0.74-2.57,0.74c-0.7,0-1.35-0.13-1.95-0.4c-0.6-0.27-1.07-0.63-1.4-1.1
		c-0.33-0.46-0.49-0.99-0.49-1.58h1.34c0,0.61,0.23,1.1,0.68,1.45s1.06,0.53,1.81,0.53c0.71,0,1.25-0.14,1.62-0.43
		c0.38-0.29,0.56-0.68,0.56-1.18c0-0.5-0.17-0.88-0.52-1.15C338.37,517.88,337.74,517.61,336.82,517.35z M350.09,521.87h-1.34v-4.69
		h-5.11v4.69h-1.34v-10.14h1.34v4.36h5.11v-4.36h1.34V521.87z M358.18,519.22h-4.25l-0.95,2.65h-1.38l3.87-10.14h1.17l3.88,10.14
		h-1.37L358.18,519.22z M354.34,518.12h3.45l-1.73-4.74L354.34,518.12z M372.88,518.65c-0.13,1.07-0.52,1.9-1.19,2.48
		c-0.67,0.58-1.55,0.87-2.66,0.87c-1.2,0-2.16-0.43-2.88-1.29c-0.72-0.86-1.08-2.01-1.08-3.45v-0.98c0-0.94,0.17-1.77,0.5-2.49
		c0.34-0.72,0.81-1.26,1.43-1.65c0.62-0.38,1.33-0.57,2.15-0.57c1.08,0,1.94,0.3,2.59,0.9c0.65,0.6,1.03,1.43,1.14,2.5h-1.34
		c-0.12-0.81-0.37-1.4-0.76-1.76c-0.39-0.36-0.93-0.54-1.63-0.54c-0.85,0-1.52,0.32-2.01,0.95c-0.49,0.63-0.73,1.53-0.73,2.7v0.98
		c0,1.1,0.23,1.98,0.69,2.63c0.46,0.65,1.1,0.98,1.93,0.98c0.74,0,1.31-0.17,1.71-0.5c0.4-0.34,0.66-0.92,0.79-1.76H372.88z
		 M380.47,520.55c-0.63,0.97-1.58,1.46-2.84,1.46c-1.02,0-1.85-0.34-2.49-1.01c-0.64-0.67-0.96-1.57-0.96-2.69v-0.24
		c0-0.75,0.14-1.42,0.43-2c0.29-0.59,0.68-1.05,1.2-1.38c0.51-0.33,1.07-0.5,1.67-0.5c0.98,0,1.74,0.32,2.28,0.97
		c0.54,0.65,0.81,1.57,0.81,2.77v0.54h-5.11c0.02,0.74,0.24,1.34,0.65,1.8c0.42,0.46,0.94,0.69,1.58,0.69
		c0.45,0,0.84-0.09,1.16-0.28c0.32-0.19,0.59-0.43,0.83-0.74L380.47,520.55L380.47,520.55z M377.47,515.25
		c-0.52,0-0.96,0.19-1.31,0.57c-0.35,0.38-0.57,0.91-0.65,1.59h3.78v-0.1c-0.04-0.65-0.21-1.16-0.53-1.52
		C378.44,515.43,378.01,515.25,377.47,515.25z M385.71,515.49c-0.2-0.03-0.41-0.05-0.63-0.05c-0.85,0-1.42,0.36-1.72,1.08v5.35
		h-1.29v-7.54h1.25l0.02,0.87c0.42-0.67,1.02-1.01,1.8-1.01c0.25,0,0.44,0.03,0.57,0.1V515.49z M388.98,512.51v1.82h1.41v1h-1.41
		v4.68c0,0.3,0.06,0.53,0.19,0.68s0.34,0.23,0.64,0.23c0.15,0,0.35-0.03,0.61-0.08v1.04c-0.34,0.09-0.67,0.14-0.99,0.14
		c-0.58,0-1.01-0.17-1.3-0.52c-0.29-0.35-0.44-0.84-0.44-1.48v-4.67h-1.37v-1h1.37v-1.82H388.98z M391.9,512.34
		c0-0.21,0.06-0.39,0.19-0.53c0.13-0.14,0.32-0.22,0.57-0.22c0.25,0,0.44,0.07,0.57,0.22c0.13,0.14,0.2,0.32,0.2,0.53
		c0,0.21-0.07,0.38-0.2,0.52c-0.13,0.14-0.32,0.21-0.57,0.21c-0.25,0-0.44-0.07-0.57-0.21C391.97,512.72,391.9,512.54,391.9,512.34z
		 M393.3,521.87h-1.29v-7.54h1.29V521.87z M395.79,521.87v-6.54h-1.19v-1h1.19v-0.64c0-0.84,0.24-1.5,0.72-1.96
		c0.48-0.47,1.16-0.7,2.04-0.7c0.52,0,1.18,0.14,1.97,0.42l-0.22,1.09c-0.58-0.23-1.13-0.35-1.66-0.35c-0.55,0-0.95,0.12-1.19,0.37
		c-0.24,0.25-0.37,0.62-0.37,1.12v0.65h1.54v1h-1.54v6.54H395.79z M401.16,521.87h-1.3v-7.54h1.3V521.87z M406.29,520.96
		c0.46,0,0.86-0.14,1.2-0.42c0.34-0.28,0.53-0.63,0.57-1.04h1.22c-0.02,0.43-0.17,0.84-0.45,1.23c-0.27,0.39-0.64,0.7-1.1,0.93
		c-0.46,0.23-0.94,0.35-1.45,0.35c-1.03,0-1.84-0.34-2.45-1.03c-0.61-0.68-0.91-1.62-0.91-2.81v-0.22c0-0.73,0.13-1.39,0.4-1.96
		c0.27-0.57,0.66-1.01,1.16-1.33c0.5-0.32,1.1-0.47,1.79-0.47c0.85,0,1.55,0.25,2.11,0.76c0.56,0.51,0.86,1.16,0.9,1.97h-1.22
		c-0.04-0.49-0.22-0.89-0.55-1.2c-0.33-0.31-0.74-0.47-1.23-0.47c-0.65,0-1.16,0.24-1.52,0.71c-0.36,0.47-0.54,1.15-0.54,2.04v0.24
		c0,0.87,0.18,1.54,0.54,2.01C405.11,520.72,405.62,520.96,406.29,520.96z M415.38,521.87c-0.07-0.15-0.13-0.41-0.18-0.79
		c-0.6,0.62-1.31,0.93-2.15,0.93c-0.74,0-1.35-0.21-1.83-0.63c-0.48-0.42-0.71-0.95-0.71-1.6c0-0.78,0.3-1.39,0.9-1.83
		c0.6-0.43,1.44-0.65,2.52-0.65h1.25v-0.59c0-0.45-0.13-0.81-0.4-1.08c-0.27-0.27-0.67-0.4-1.19-0.4c-0.46,0-0.85,0.12-1.16,0.35
		c-0.31,0.23-0.47,0.51-0.47,0.84h-1.3c0-0.38,0.13-0.74,0.4-1.09c0.27-0.35,0.63-0.63,1.09-0.83c0.46-0.2,0.96-0.31,1.51-0.31
		c0.87,0,1.55,0.22,2.04,0.65c0.49,0.43,0.75,1.03,0.77,1.79v3.47c0,0.69,0.09,1.24,0.26,1.65v0.11H415.38z M413.24,520.89
		c0.4,0,0.79-0.1,1.15-0.31c0.36-0.21,0.62-0.48,0.79-0.81v-1.55h-1.01c-1.58,0-2.37,0.46-2.37,1.39c0,0.4,0.13,0.72,0.4,0.95
		C412.47,520.77,412.82,520.89,413.24,520.89z M420.23,512.51v1.82h1.41v1h-1.41v4.68c0,0.3,0.06,0.53,0.19,0.68
		s0.34,0.23,0.64,0.23c0.15,0,0.35-0.03,0.61-0.08v1.04c-0.34,0.09-0.67,0.14-0.99,0.14c-0.58,0-1.01-0.17-1.3-0.52
		c-0.29-0.35-0.44-0.84-0.44-1.48v-4.67h-1.37v-1h1.37v-1.82H420.23z M423.16,512.34c0-0.21,0.06-0.39,0.19-0.53
		c0.13-0.14,0.32-0.22,0.57-0.22c0.25,0,0.44,0.07,0.57,0.22c0.13,0.14,0.2,0.32,0.2,0.53c0,0.21-0.07,0.38-0.2,0.52
		c-0.13,0.14-0.32,0.21-0.57,0.21c-0.25,0-0.44-0.07-0.57-0.21C423.22,512.72,423.16,512.54,423.16,512.34z M424.55,521.87h-1.29
		v-7.54h1.29V521.87z M426.28,518.03c0-0.74,0.15-1.4,0.44-1.99c0.29-0.59,0.69-1.04,1.21-1.37c0.52-0.32,1.11-0.48,1.77-0.48
		c1.03,0,1.86,0.36,2.49,1.07s0.95,1.66,0.95,2.83v0.09c0,0.73-0.14,1.39-0.42,1.97c-0.28,0.58-0.68,1.04-1.2,1.36
		c-0.52,0.33-1.12,0.49-1.8,0.49c-1.02,0-1.85-0.36-2.48-1.07c-0.63-0.71-0.95-1.65-0.95-2.82V518.03z M427.57,518.19
		c0,0.84,0.19,1.51,0.58,2.01c0.39,0.51,0.91,0.76,1.56,0.76c0.65,0,1.17-0.26,1.56-0.77c0.39-0.51,0.58-1.23,0.58-2.16
		c0-0.83-0.2-1.5-0.59-2.01c-0.39-0.51-0.91-0.77-1.56-0.77c-0.64,0-1.15,0.25-1.54,0.76C427.77,516.52,427.57,517.24,427.57,518.19
		z M435.97,514.33l0.04,0.95c0.58-0.72,1.33-1.09,2.26-1.09c1.59,0,2.4,0.9,2.41,2.7v4.98h-1.29v-4.99c0-0.54-0.13-0.94-0.37-1.2
		c-0.24-0.26-0.62-0.39-1.14-0.39c-0.42,0-0.78,0.11-1.1,0.33c-0.32,0.22-0.56,0.52-0.74,0.88v5.37h-1.29v-7.54H435.97z"/>
	<text transform="matrix(1 0 0 1 441.6226 521.8716)" class="st0 st3 st6"> </text>
	<text transform="matrix(1 0 0 1 309.9473 540.4146)" class="st0 st3 st6">   </text>
	<text transform="matrix(1 0 0 1 320.546 540.4146)"><tspan x="0" y="0" class="st0 st3 st6">Gene</tspan><tspan x="32.7" y="0" class="st0 st3 st6">r</tspan><tspan x="37.24" y="0" class="st0 st3 st6">al Industry Safety and Health</tspan></text>
	<text transform="matrix(1 0 0 1 309.9473 561.811)"><tspan x="0" y="0" class="st0 st3 st6">– Citizenship </tspan><tspan x="86.46" y="0" class="st0 st3 st6">A</tspan><tspan x="95.5" y="0" class="st0 st3 st6">wards</tspan></text>
	<text transform="matrix(1 0 0 1 309.9473 580.354)" class="st0 st3 st6">   2017 and 2018</text>
	<text transform="matrix(1 0 0 1 309.9473 603.1802)"><tspan x="0" y="0" class="st0 st3 st6">– Ram Pride Shop </tspan><tspan x="117.88" y="0" class="st0 st3 st6">A</tspan><tspan x="126.94" y="0" class="st0 st3 st6">ward</tspan></text>
	<text transform="matrix(1 0 0 1 309.9473 618.0122)" class="st0 st3 st6">   2018</text>
	<g>
		<defs>
			<rect id="SVGID_1_" x="40.18" y="-156.49" width="672.07" height="1028.78"/>
		</defs>
		<clipPath id="SVGID_2_">
			<use xlink:href="#SVGID_1_"  style="overflow:visible;"/>
		</clipPath>
	</g>
</g>
<g id="Layer_2" class="st7">
	<text transform="matrix(1 0 0 1 210.4824 143.644)" class="st8"><tspan x="0" y="0" class="st0 st5 st2">EDUC</tspan><tspan x="27.42" y="0" class="st0 st5 st2">A</tspan><tspan x="34.18" y="0" class="st0 st5 st2">TION </tspan></text>
	<text transform="matrix(1 0 0 1 210.4824 163.3608)" class="st8"><tspan x="0" y="0" class="st0 st9 st2">G</tspan><tspan x="7.39" y="0" class="st0 st9 st2">r</tspan><tspan x="11.05" y="0" class="st0 st9 st2">aphic Design and Illust</tspan><tspan x="120.95" y="0" class="st0 st9 st2">r</tspan><tspan x="124.64" y="0" class="st0 st9 st2">ation Underg</tspan><tspan x="186.82" y="0" class="st0 st9 st2">r</tspan><tspan x="190.49" y="0" class="st0 st9 st2">aduate | UMass Da</tspan><tspan x="281.25" y="0" class="st0 st9 st2">r</tspan><tspan x="285.32" y="0" class="st0 st9 st2">tmouth</tspan></text>
	<text transform="matrix(1 0 0 1 210.4824 178.187)" class="st10 st3 st11">2018 – Current </text>
	<text transform="matrix(1 0 0 1 210.4824 189.7603)" class="st8"><tspan x="0" y="0" class="st0 st3 st12">Chancello</tspan><tspan x="39.84" y="0" class="st0 st3 st12">r</tspan><tspan x="42.97" y="0" class="st0 st3 st12">’</tspan><tspan x="44.28" y="0" class="st0 st3 st12">s List, 3.72 G</tspan><tspan x="95.89" y="0" class="st0 st3 st12">P</tspan><tspan x="100.96" y="0" class="st0 st3 st12">A</tspan></text>
	<text transform="matrix(1 0 0 1 210.4824 213.6333)" class="st8"><tspan x="0" y="0" class="st0 st9 st2">High School Diploma | Shawsheen</tspan><tspan x="165.61" y="0" class="st0 st9 st2"> </tspan><tspan x="168.03" y="0" class="st0 st9 st2">Technical Highschool </tspan></text>
	<text transform="matrix(1 0 0 1 210.4824 229.3677)" class="st10 st3 st11">2014 – 2018</text>
	<text transform="matrix(1 0 0 1 266.6172 229.3677)" class="st10 st3 st2"> </text>
	<text transform="matrix(1 0 0 1 210.4824 242.0269)" class="st10 st3 st12">Design and Visual Communications  </text>
	<text transform="matrix(1 0 0 1 210.4824 252.8774)" class="st8"><tspan x="0" y="0" class="st0 st3 st12">Citizenship </tspan><tspan x="46.64" y="0" class="st0 st3 st12">A</tspan><tspan x="52.37" y="0" class="st0 st3 st12">wards for 2017 and 2018 </tspan></text>
	<text transform="matrix(1 0 0 1 210.4824 263.728)" class="st8"><tspan x="0" y="0" class="st0 st3 st12">2018 Ram Pride Shop </tspan><tspan x="89.1" y="0" class="st0 st3 st12">A</tspan><tspan x="94.83" y="0" class="st0 st3 st12">ward</tspan></text>
	<text transform="matrix(1 0 0 1 210.4824 299.6724)" class="st10 st5 st2">JOB EXPERIENCE </text>
	<text transform="matrix(1 0 0 1 210.4824 319.3882)" class="st8"><tspan x="0" y="0" class="st0 st9 st2">P</tspan><tspan x="6.94" y="0" class="st0 st9 st2">r</tspan><tspan x="10.57" y="0" class="st0 st9 st2">oduction </tspan><tspan x="55.87" y="0" class="st0 st9 st2">Z</tspan><tspan x="62.32" y="0" class="st0 st9 st2">one Leader | </tspan><tspan x="124.51" y="0" class="st0 st9 st2">P</tspan><tspan x="131.39" y="0" class="st0 st9 st2">ane</tspan><tspan x="149.12" y="0" class="st0 st9 st2">r</tspan><tspan x="152.78" y="0" class="st0 st9 st2">a Bread </tspan></text>
	<text transform="matrix(1 0 0 1 210.4824 334.2153)" class="st8"><tspan x="0" y="0" class="st0 st3 st11">April 2018 – Ma</tspan><tspan x="70.61" y="0" class="st0 st3 st11">r</tspan><tspan x="73.86" y="0" class="st0 st3 st11">ch 2020</tspan></text>
	<text transform="matrix(1 0 0 1 210.4824 348.1401)" class="st8"><tspan x="0" y="0" class="st0 st3 st12">As pa</tspan><tspan x="22.79" y="0" class="st0 st3 st12">r</tspan><tspan x="26.06" y="0" class="st0 st3 st12">t of the management team, I p</tspan><tspan x="146.64" y="0" class="st0 st3 st12">r</tspan><tspan x="149.58" y="0" class="st0 st3 st12">o</tspan><tspan x="154.67" y="0" class="st0 st3 st12">vide guidance and instruction </tspan></text>
	<text transform="matrix(1 0 0 1 210.4824 358.9917)" class="st8"><tspan x="0" y="0" class="st0 st3 st12">t</tspan><tspan x="2.87" y="0" class="st0 st3 st12">o associates, as well as manage and maintain the quality of p</tspan><tspan x="248.69" y="0" class="st0 st3 st12">r</tspan><tspan x="251.58" y="0" class="st0 st3 st12">oducts </tspan></text>
	<text transform="matrix(1 0 0 1 491.958 381.5981)" class="st10 st3 st12"> </text>
	<text transform="matrix(1 0 0 1 210.4824 369.3003)" class="st8"><tspan x="0" y="0" class="st0 st3 st12">and se</tspan><tspan x="26.7" y="0" class="st0 st3 st12">r</tspan><tspan x="29.82" y="0" class="st0 st3 st12">vices p</tspan><tspan x="57.9" y="0" class="st0 st3 st12">r</tspan><tspan x="60.86" y="0" class="st0 st3 st12">o</tspan><tspan x="65.96" y="0" class="st0 st3 st12">vided </tspan><tspan x="89.76" y="0" class="st0 st3 st12">t</tspan><tspan x="92.62" y="0" class="st0 st3 st12">o cus</tspan><tspan x="114.4" y="0" class="st0 st3 st12">t</tspan><tspan x="117.27" y="0" class="st0 st3 st12">omers.  </tspan></text>
	<text transform="matrix(1 0 0 1 210.4824 398.0547)" class="st8"><tspan x="0" y="0" class="st0 st9 st2">Assistant Catering Coordina</tspan><tspan x="136.53" y="0" class="st0 st9 st2">t</tspan><tspan x="139.98" y="0" class="st0 st9 st2">or | </tspan><tspan x="158.1" y="0" class="st0 st9 st2">P</tspan><tspan x="164.98" y="0" class="st0 st9 st2">ane</tspan><tspan x="182.71" y="0" class="st0 st9 st2">r</tspan><tspan x="186.37" y="0" class="st0 st9 st2">a Bread </tspan></text>
	<text transform="matrix(1 0 0 1 210.4824 413.7891)" class="st10 st13 st11">May 2019 – September 2019 </text>
	<text transform="matrix(1 0 0 1 210.4824 428.6191)" class="st8"><tspan x="0" y="0" class="st0 st3 st12">I was responsible for catering </tspan><tspan x="120.75" y="0" class="st0 st3 st12">e</tspan><tspan x="125.45" y="0" class="st0 st3 st12">vents and business meetings for the </tspan></text>
	<text transform="matrix(1 0 0 1 210.4824 439.4697)" class="st8"><tspan x="0" y="0" class="st0 st3 st12">summer of 2019. I would prepare, deliver and present large meals </tspan><tspan x="264.56" y="0" class="st0 st3 st12">t</tspan><tspan x="267.37" y="0" class="st0 st3 st12">o </tspan></text>
	<path class="st10" d="M210.88,448.25c0-0.47,0.09-0.89,0.28-1.26c0.18-0.37,0.44-0.66,0.77-0.87c0.33-0.2,0.7-0.3,1.12-0.3
		c0.65,0,1.18,0.23,1.58,0.68c0.4,0.45,0.6,1.05,0.6,1.8v0.06c0,0.47-0.09,0.88-0.27,1.25c-0.18,0.37-0.43,0.66-0.76,0.86
		c-0.33,0.21-0.71,0.31-1.14,0.31c-0.65,0-1.17-0.23-1.57-0.68c-0.4-0.45-0.6-1.05-0.6-1.79V448.25z M211.71,448.35
		c0,0.53,0.12,0.96,0.37,1.28c0.25,0.32,0.57,0.48,0.99,0.48c0.42,0,0.74-0.16,0.99-0.49c0.24-0.33,0.37-0.78,0.37-1.37
		c0-0.52-0.12-0.95-0.37-1.27c-0.25-0.33-0.58-0.49-0.99-0.49c-0.4,0-0.73,0.16-0.98,0.48
		C211.83,447.29,211.71,447.75,211.71,448.35z M216.66,450.68v-4.15h-0.76v-0.63h0.76v-0.49c0-0.51,0.14-0.91,0.41-1.19
		c0.27-0.28,0.66-0.42,1.16-0.42c0.19,0,0.38,0.02,0.56,0.07l-0.04,0.66c-0.14-0.03-0.29-0.04-0.44-0.04
		c-0.26,0-0.47,0.08-0.61,0.23c-0.14,0.15-0.22,0.38-0.22,0.67v0.5h1.02v0.63h-1.02v4.15H216.66z M219.67,450.68v-4.15h-0.76v-0.63
		h0.76v-0.41c0-0.53,0.15-0.95,0.46-1.25c0.3-0.3,0.74-0.45,1.29-0.45c0.33,0,0.75,0.09,1.25,0.27l-0.14,0.69
		c-0.37-0.15-0.72-0.22-1.05-0.22c-0.35,0-0.6,0.08-0.76,0.24c-0.15,0.16-0.23,0.39-0.23,0.71v0.42h0.98v0.63h-0.98v4.15H219.67z
		 M223.07,450.68h-0.82v-4.78h0.82V450.68z M226.32,450.1c0.29,0,0.55-0.09,0.76-0.26c0.22-0.18,0.34-0.4,0.36-0.66h0.77
		c-0.01,0.27-0.11,0.53-0.28,0.78c-0.17,0.25-0.41,0.44-0.7,0.59c-0.29,0.15-0.6,0.22-0.92,0.22c-0.65,0-1.17-0.22-1.55-0.65
		c-0.38-0.43-0.58-1.03-0.58-1.78v-0.14c0-0.47,0.09-0.88,0.26-1.24c0.17-0.36,0.42-0.64,0.74-0.84c0.32-0.2,0.7-0.3,1.13-0.3
		c0.54,0,0.98,0.16,1.34,0.48c0.35,0.32,0.54,0.74,0.57,1.25h-0.77c-0.02-0.31-0.14-0.56-0.35-0.76c-0.21-0.2-0.47-0.3-0.78-0.3
		c-0.42,0-0.74,0.15-0.96,0.45c-0.23,0.3-0.34,0.73-0.34,1.3v0.15c0,0.55,0.11,0.97,0.34,1.27
		C225.57,449.96,225.9,450.1,226.32,450.1z M232.92,449.85c-0.4,0.62-1,0.92-1.8,0.92c-0.65,0-1.17-0.21-1.58-0.64
		c-0.41-0.43-0.61-0.99-0.61-1.71v-0.15c0-0.47,0.09-0.9,0.27-1.27c0.18-0.37,0.43-0.66,0.76-0.87c0.33-0.21,0.68-0.32,1.06-0.32
		c0.62,0,1.1,0.2,1.45,0.61c0.34,0.41,0.52,0.99,0.52,1.76v0.34h-3.24c0.01,0.47,0.15,0.85,0.41,1.14c0.26,0.29,0.6,0.43,1,0.43
		c0.29,0,0.53-0.06,0.73-0.18c0.2-0.12,0.38-0.27,0.53-0.47L232.92,449.85L232.92,449.85z M231.01,446.49
		c-0.33,0-0.61,0.12-0.83,0.36c-0.22,0.24-0.36,0.58-0.42,1.01h2.39v-0.06c-0.02-0.42-0.14-0.74-0.34-0.96
		C231.62,446.6,231.35,446.49,231.01,446.49z M236.71,449.42c0-0.22-0.08-0.39-0.25-0.51c-0.17-0.12-0.46-0.23-0.87-0.32
		c-0.41-0.09-0.74-0.19-0.98-0.32s-0.42-0.27-0.54-0.44c-0.12-0.17-0.17-0.37-0.17-0.61c0-0.39,0.17-0.72,0.5-0.99
		c0.33-0.27,0.75-0.41,1.27-0.41c0.54,0,0.98,0.14,1.32,0.42c0.34,0.28,0.51,0.64,0.51,1.07h-0.82c0-0.22-0.09-0.42-0.28-0.58
		c-0.19-0.16-0.43-0.24-0.72-0.24c-0.3,0-0.53,0.06-0.7,0.19c-0.17,0.13-0.25,0.3-0.25,0.51c0,0.2,0.08,0.35,0.23,0.45
		c0.16,0.1,0.44,0.2,0.85,0.29c0.41,0.09,0.74,0.2,0.99,0.33c0.25,0.13,0.44,0.28,0.56,0.46c0.12,0.18,0.18,0.4,0.18,0.65
		c0,0.43-0.17,0.77-0.51,1.03c-0.34,0.26-0.78,0.39-1.33,0.39c-0.38,0-0.72-0.07-1.02-0.2c-0.29-0.14-0.52-0.32-0.69-0.57
		c-0.17-0.24-0.25-0.51-0.25-0.79h0.82c0.01,0.27,0.12,0.49,0.33,0.65c0.2,0.16,0.47,0.24,0.81,0.24c0.31,0,0.56-0.06,0.74-0.19
		C236.61,449.79,236.71,449.62,236.71,449.42z M243.78,450.68c-0.05-0.09-0.09-0.26-0.11-0.5c-0.38,0.39-0.83,0.59-1.36,0.59
		c-0.47,0-0.86-0.13-1.16-0.4c-0.3-0.27-0.45-0.6-0.45-1.01c0-0.5,0.19-0.88,0.57-1.16c0.38-0.28,0.91-0.41,1.6-0.41h0.79v-0.38
		c0-0.29-0.09-0.51-0.26-0.68c-0.17-0.17-0.42-0.25-0.76-0.25c-0.29,0-0.54,0.07-0.73,0.22c-0.2,0.15-0.3,0.33-0.3,0.53h-0.82
		c0-0.24,0.08-0.47,0.25-0.69c0.17-0.22,0.4-0.4,0.69-0.53c0.29-0.13,0.61-0.19,0.96-0.19c0.55,0,0.98,0.14,1.29,0.41
		c0.31,0.28,0.47,0.65,0.49,1.14v2.2c0,0.44,0.06,0.79,0.17,1.05v0.07H243.78z M242.43,450.06c0.26,0,0.5-0.07,0.73-0.2
		c0.23-0.13,0.4-0.3,0.5-0.52v-0.98h-0.64c-1,0-1.5,0.29-1.5,0.88c0,0.26,0.09,0.46,0.26,0.6
		C241.94,449.99,242.16,450.06,242.43,450.06z M246.52,445.91l0.03,0.6c0.36-0.46,0.84-0.69,1.43-0.69c1.01,0,1.52,0.57,1.53,1.71
		v3.16h-0.82v-3.16c0-0.34-0.08-0.6-0.24-0.76c-0.15-0.16-0.4-0.25-0.72-0.25c-0.26,0-0.5,0.07-0.7,0.21
		c-0.2,0.14-0.36,0.33-0.47,0.56v3.4h-0.82v-4.78H246.52z M250.54,448.25c0-0.73,0.17-1.32,0.52-1.77c0.35-0.45,0.8-0.67,1.36-0.67
		c0.56,0,1,0.19,1.33,0.57v-2.49h0.82v6.78h-0.75l-0.04-0.51c-0.33,0.4-0.78,0.6-1.36,0.6c-0.55,0-1-0.23-1.35-0.68
		c-0.35-0.45-0.52-1.04-0.52-1.77V448.25z M251.36,448.35c0,0.54,0.11,0.97,0.34,1.27c0.22,0.31,0.53,0.46,0.93,0.46
		c0.52,0,0.9-0.23,1.13-0.7v-2.19c-0.24-0.45-0.62-0.68-1.13-0.68c-0.4,0-0.71,0.15-0.94,0.46
		C251.47,447.28,251.36,447.74,251.36,448.35z M260,450.1c0.29,0,0.55-0.09,0.76-0.26c0.22-0.18,0.34-0.4,0.36-0.66h0.77
		c-0.01,0.27-0.11,0.53-0.28,0.78c-0.17,0.25-0.41,0.44-0.7,0.59c-0.29,0.15-0.6,0.22-0.92,0.22c-0.65,0-1.17-0.22-1.55-0.65
		c-0.38-0.43-0.58-1.03-0.58-1.78v-0.14c0-0.47,0.09-0.88,0.26-1.24c0.17-0.36,0.42-0.64,0.74-0.84c0.32-0.2,0.7-0.3,1.13-0.3
		c0.54,0,0.98,0.16,1.34,0.48c0.35,0.32,0.54,0.74,0.57,1.25h-0.77c-0.02-0.31-0.14-0.56-0.35-0.76c-0.21-0.2-0.47-0.3-0.78-0.3
		c-0.42,0-0.74,0.15-0.96,0.45c-0.23,0.3-0.34,0.73-0.34,1.3v0.15c0,0.55,0.11,0.97,0.34,1.27C259.26,449.96,259.58,450.1,260,450.1
		z M263.7,450.68h-0.82v-6.78h0.82V450.68z M265.02,444.64c0-0.13,0.04-0.24,0.12-0.34c0.08-0.09,0.2-0.14,0.36-0.14
		c0.16,0,0.28,0.05,0.36,0.14c0.08,0.09,0.12,0.2,0.12,0.34c0,0.13-0.04,0.24-0.12,0.33c-0.08,0.09-0.2,0.13-0.36,0.13
		c-0.16,0-0.28-0.04-0.36-0.13C265.06,444.88,265.02,444.77,265.02,444.64z M265.9,450.68h-0.82v-4.78h0.82V450.68z M270.99,449.85
		c-0.4,0.62-1,0.92-1.8,0.92c-0.65,0-1.17-0.21-1.58-0.64c-0.41-0.43-0.61-0.99-0.61-1.71v-0.15c0-0.47,0.09-0.9,0.27-1.27
		c0.18-0.37,0.43-0.66,0.76-0.87c0.33-0.21,0.68-0.32,1.06-0.32c0.62,0,1.1,0.2,1.45,0.61c0.34,0.41,0.52,0.99,0.52,1.76v0.34h-3.24
		c0.01,0.47,0.15,0.85,0.41,1.14c0.26,0.29,0.6,0.43,1,0.43c0.29,0,0.53-0.06,0.73-0.18c0.2-0.12,0.38-0.27,0.53-0.47L270.99,449.85
		L270.99,449.85z M269.09,446.49c-0.33,0-0.61,0.12-0.83,0.36c-0.22,0.24-0.36,0.58-0.42,1.01h2.39v-0.06
		c-0.02-0.42-0.14-0.74-0.34-0.96C269.7,446.6,269.43,446.49,269.09,446.49z M272.77,445.91l0.03,0.6c0.36-0.46,0.84-0.69,1.43-0.69
		c1.01,0,1.52,0.57,1.53,1.71v3.16h-0.82v-3.16c0-0.34-0.08-0.6-0.24-0.76c-0.15-0.16-0.4-0.25-0.72-0.25c-0.26,0-0.5,0.07-0.7,0.21
		c-0.2,0.14-0.36,0.33-0.47,0.56v3.4H272v-4.78H272.77z M278.1,444.75v1.16h0.89v0.63h-0.89v2.97c0,0.19,0.04,0.34,0.12,0.43
		c0.08,0.1,0.21,0.14,0.41,0.14c0.09,0,0.22-0.02,0.39-0.05v0.66c-0.21,0.06-0.42,0.09-0.63,0.09c-0.37,0-0.64-0.11-0.83-0.33
		c-0.19-0.22-0.28-0.53-0.28-0.94v-2.96h-0.87v-0.63h0.87v-1.16H278.1z M282.73,449.42c0-0.22-0.08-0.39-0.25-0.51
		c-0.17-0.12-0.46-0.23-0.87-0.32c-0.41-0.09-0.74-0.19-0.98-0.32c-0.24-0.12-0.42-0.27-0.54-0.44c-0.12-0.17-0.17-0.37-0.17-0.61
		c0-0.39,0.17-0.72,0.5-0.99c0.33-0.27,0.75-0.41,1.27-0.41c0.54,0,0.98,0.14,1.32,0.42c0.34,0.28,0.51,0.64,0.51,1.07h-0.82
		c0-0.22-0.09-0.42-0.28-0.58c-0.19-0.16-0.43-0.24-0.72-0.24c-0.3,0-0.53,0.06-0.7,0.19c-0.17,0.13-0.25,0.3-0.25,0.51
		c0,0.2,0.08,0.35,0.23,0.45c0.16,0.1,0.44,0.2,0.85,0.29c0.41,0.09,0.74,0.2,0.99,0.33c0.25,0.13,0.44,0.28,0.56,0.46
		c0.12,0.18,0.18,0.4,0.18,0.65c0,0.43-0.17,0.77-0.51,1.03c-0.34,0.26-0.78,0.39-1.33,0.39c-0.38,0-0.72-0.07-1.02-0.2
		c-0.29-0.14-0.52-0.32-0.69-0.57c-0.17-0.24-0.25-0.51-0.25-0.79h0.82c0.01,0.27,0.12,0.49,0.33,0.65c0.2,0.16,0.47,0.24,0.81,0.24
		c0.31,0,0.56-0.06,0.74-0.19C282.64,449.79,282.73,449.62,282.73,449.42z M289.81,450.68c-0.05-0.09-0.09-0.26-0.11-0.5
		c-0.38,0.39-0.83,0.59-1.36,0.59c-0.47,0-0.86-0.13-1.16-0.4c-0.3-0.27-0.45-0.6-0.45-1.01c0-0.5,0.19-0.88,0.57-1.16
		c0.38-0.28,0.91-0.41,1.6-0.41h0.79v-0.38c0-0.29-0.09-0.51-0.26-0.68c-0.17-0.17-0.42-0.25-0.76-0.25c-0.29,0-0.54,0.07-0.73,0.22
		c-0.2,0.15-0.3,0.33-0.3,0.53h-0.82c0-0.24,0.08-0.47,0.25-0.69c0.17-0.22,0.4-0.4,0.69-0.53c0.29-0.13,0.61-0.19,0.96-0.19
		c0.55,0,0.98,0.14,1.29,0.41c0.31,0.28,0.47,0.65,0.49,1.14v2.2c0,0.44,0.06,0.79,0.17,1.05v0.07H289.81z M288.45,450.06
		c0.26,0,0.5-0.07,0.73-0.2c0.23-0.13,0.4-0.3,0.5-0.52v-0.98h-0.64c-1,0-1.5,0.29-1.5,0.88c0,0.26,0.09,0.46,0.26,0.6
		C287.97,449.99,288.19,450.06,288.45,450.06z M292.89,444.75v1.16h0.89v0.63h-0.89v2.97c0,0.19,0.04,0.34,0.12,0.43
		c0.08,0.1,0.21,0.14,0.41,0.14c0.09,0,0.22-0.02,0.39-0.05v0.66c-0.21,0.06-0.42,0.09-0.63,0.09c-0.37,0-0.64-0.11-0.83-0.33
		c-0.19-0.22-0.28-0.53-0.28-0.94v-2.96h-0.87v-0.63h0.87v-1.16H292.89z M298.09,444.75v1.16h0.89v0.63h-0.89v2.97
		c0,0.19,0.04,0.34,0.12,0.43c0.08,0.1,0.21,0.14,0.41,0.14c0.09,0,0.22-0.02,0.39-0.05v0.66c-0.21,0.06-0.42,0.09-0.63,0.09
		c-0.37,0-0.64-0.11-0.83-0.33c-0.19-0.22-0.28-0.53-0.28-0.94v-2.96h-0.87v-0.63h0.87v-1.16H298.09z M300.75,446.48
		c0.36-0.44,0.83-0.67,1.41-0.67c1.01,0,1.52,0.57,1.53,1.71v3.16h-0.82v-3.16c0-0.34-0.08-0.6-0.24-0.76
		c-0.15-0.16-0.4-0.25-0.72-0.25c-0.26,0-0.5,0.07-0.7,0.21c-0.2,0.14-0.36,0.33-0.47,0.56v3.4h-0.82v-6.78h0.82V446.48z
		 M308.7,449.85c-0.4,0.62-1,0.92-1.8,0.92c-0.65,0-1.17-0.21-1.58-0.64c-0.41-0.43-0.61-0.99-0.61-1.71v-0.15
		c0-0.47,0.09-0.9,0.27-1.27c0.18-0.37,0.43-0.66,0.76-0.87c0.33-0.21,0.68-0.32,1.06-0.32c0.62,0,1.1,0.2,1.45,0.61
		c0.34,0.41,0.52,0.99,0.52,1.76v0.34h-3.24c0.01,0.47,0.15,0.85,0.41,1.14c0.26,0.29,0.6,0.43,1,0.43c0.29,0,0.53-0.06,0.73-0.18
		c0.2-0.12,0.38-0.27,0.53-0.47L308.7,449.85L308.7,449.85z M306.8,446.49c-0.33,0-0.61,0.12-0.83,0.36
		c-0.22,0.24-0.36,0.58-0.42,1.01h2.39v-0.06c-0.02-0.42-0.14-0.74-0.34-0.96C307.41,446.6,307.14,446.49,306.8,446.49z
		 M313.06,444.75v1.16h0.89v0.63h-0.89v2.97c0,0.19,0.04,0.34,0.12,0.43c0.08,0.1,0.21,0.14,0.41,0.14c0.09,0,0.22-0.02,0.39-0.05
		v0.66c-0.21,0.06-0.42,0.09-0.63,0.09c-0.37,0-0.64-0.11-0.83-0.33c-0.19-0.22-0.28-0.53-0.28-0.94v-2.96h-0.87v-0.63h0.87v-1.16
		H313.06z M314.91,444.64c0-0.13,0.04-0.24,0.12-0.34c0.08-0.09,0.2-0.14,0.36-0.14c0.16,0,0.28,0.05,0.36,0.14
		c0.08,0.09,0.12,0.2,0.12,0.34c0,0.13-0.04,0.24-0.12,0.33c-0.08,0.09-0.2,0.13-0.36,0.13c-0.16,0-0.28-0.04-0.36-0.13
		C314.95,444.88,314.91,444.77,314.91,444.64z M315.8,450.68h-0.82v-4.78h0.82V450.68z M317.87,445.91l0.02,0.53
		c0.35-0.41,0.82-0.62,1.42-0.62c0.67,0,1.12,0.26,1.36,0.77c0.16-0.23,0.37-0.42,0.62-0.56c0.25-0.14,0.56-0.21,0.9-0.21
		c1.05,0,1.58,0.55,1.6,1.66v3.2h-0.82v-3.15c0-0.34-0.08-0.6-0.23-0.77c-0.16-0.17-0.42-0.25-0.79-0.25c-0.3,0-0.55,0.09-0.76,0.27
		c-0.2,0.18-0.32,0.42-0.35,0.73v3.17h-0.82v-3.13c0-0.69-0.34-1.04-1.02-1.04c-0.54,0-0.9,0.23-1.1,0.68v3.49h-0.82v-4.78H317.87z
		 M328.81,449.85c-0.4,0.62-1,0.92-1.8,0.92c-0.65,0-1.17-0.21-1.58-0.64c-0.41-0.43-0.61-0.99-0.61-1.71v-0.15
		c0-0.47,0.09-0.9,0.27-1.27c0.18-0.37,0.43-0.66,0.76-0.87c0.33-0.21,0.68-0.32,1.06-0.32c0.62,0,1.1,0.2,1.45,0.61
		c0.34,0.41,0.52,0.99,0.52,1.76v0.34h-3.24c0.01,0.47,0.15,0.85,0.41,1.14c0.26,0.29,0.6,0.43,1,0.43c0.29,0,0.53-0.06,0.73-0.18
		c0.2-0.12,0.38-0.27,0.53-0.47L328.81,449.85L328.81,449.85z M326.91,446.49c-0.33,0-0.61,0.12-0.83,0.36
		c-0.22,0.24-0.36,0.58-0.42,1.01h2.39v-0.06c-0.02-0.42-0.14-0.74-0.34-0.96C327.52,446.6,327.25,446.49,326.91,446.49z
		 M333.17,444.75v1.16h0.89v0.63h-0.89v2.97c0,0.19,0.04,0.34,0.12,0.43c0.08,0.1,0.21,0.14,0.41,0.14c0.09,0,0.22-0.02,0.39-0.05
		v0.66c-0.21,0.06-0.42,0.09-0.63,0.09c-0.37,0-0.64-0.11-0.83-0.33c-0.19-0.22-0.28-0.53-0.28-0.94v-2.96h-0.87v-0.63h0.87v-1.16
		H333.17z M335.84,446.48c0.36-0.44,0.83-0.67,1.41-0.67c1.01,0,1.52,0.57,1.53,1.71v3.16h-0.82v-3.16c0-0.34-0.08-0.6-0.24-0.76
		c-0.15-0.16-0.4-0.25-0.72-0.25c-0.26,0-0.5,0.07-0.7,0.21c-0.2,0.14-0.36,0.33-0.47,0.56v3.4h-0.82v-6.78h0.82V446.48z
		 M343.79,449.85c-0.4,0.62-1,0.92-1.8,0.92c-0.65,0-1.17-0.21-1.58-0.64c-0.41-0.43-0.61-0.99-0.61-1.71v-0.15
		c0-0.47,0.09-0.9,0.27-1.27c0.18-0.37,0.43-0.66,0.76-0.87c0.33-0.21,0.68-0.32,1.06-0.32c0.62,0,1.1,0.2,1.45,0.61
		c0.34,0.41,0.52,0.99,0.52,1.76v0.34h-3.24c0.01,0.47,0.15,0.85,0.41,1.14c0.26,0.29,0.6,0.43,1,0.43c0.29,0,0.53-0.06,0.73-0.18
		c0.2-0.12,0.38-0.27,0.53-0.47L343.79,449.85L343.79,449.85z M341.88,446.49c-0.33,0-0.61,0.12-0.83,0.36
		c-0.22,0.24-0.36,0.58-0.42,1.01h2.39v-0.06c-0.02-0.42-0.14-0.74-0.34-0.96C342.5,446.6,342.22,446.49,341.88,446.49z
		 M346.36,449.49l1.11-3.58h0.87l-1.92,5.51c-0.3,0.79-0.77,1.19-1.42,1.19l-0.15-0.01l-0.3-0.06v-0.66l0.22,0.02
		c0.28,0,0.49-0.06,0.65-0.17c0.15-0.11,0.28-0.32,0.38-0.61l0.18-0.49l-1.7-4.72h0.89L346.36,449.49z M352.13,446.48
		c0.36-0.44,0.83-0.67,1.41-0.67c1.01,0,1.52,0.57,1.53,1.71v3.16h-0.82v-3.16c0-0.34-0.08-0.6-0.24-0.76
		c-0.15-0.16-0.4-0.25-0.72-0.25c-0.26,0-0.5,0.07-0.7,0.21c-0.2,0.14-0.36,0.33-0.47,0.56v3.4h-0.82v-6.78h0.82V446.48z
		 M359.25,450.68c-0.05-0.09-0.09-0.26-0.11-0.5c-0.38,0.39-0.83,0.59-1.36,0.59c-0.47,0-0.86-0.13-1.16-0.4
		c-0.3-0.27-0.45-0.6-0.45-1.01c0-0.5,0.19-0.88,0.57-1.16c0.38-0.28,0.91-0.41,1.6-0.41h0.79v-0.38c0-0.29-0.09-0.51-0.26-0.68
		c-0.17-0.17-0.42-0.25-0.76-0.25c-0.29,0-0.54,0.07-0.73,0.22c-0.2,0.15-0.3,0.33-0.3,0.53h-0.82c0-0.24,0.08-0.47,0.25-0.69
		c0.17-0.22,0.4-0.4,0.69-0.53c0.29-0.13,0.61-0.19,0.96-0.19c0.55,0,0.98,0.14,1.29,0.41c0.31,0.28,0.47,0.65,0.49,1.14v2.2
		c0,0.44,0.06,0.79,0.17,1.05v0.07H359.25z M357.89,450.06c0.26,0,0.5-0.07,0.73-0.2c0.23-0.13,0.4-0.3,0.5-0.52v-0.98h-0.64
		c-1,0-1.5,0.29-1.5,0.88c0,0.26,0.09,0.46,0.26,0.6C357.4,449.99,357.62,450.06,357.89,450.06z M361.02,448.25
		c0-0.73,0.17-1.32,0.52-1.77c0.35-0.45,0.8-0.67,1.36-0.67c0.56,0,1,0.19,1.33,0.57v-2.49h0.82v6.78h-0.75l-0.04-0.51
		c-0.33,0.4-0.78,0.6-1.36,0.6c-0.55,0-1-0.23-1.35-0.68c-0.35-0.45-0.52-1.04-0.52-1.77V448.25z M361.83,448.35
		c0,0.54,0.11,0.97,0.34,1.27c0.22,0.31,0.53,0.46,0.93,0.46c0.52,0,0.9-0.23,1.13-0.7v-2.19c-0.24-0.45-0.62-0.68-1.13-0.68
		c-0.4,0-0.71,0.15-0.94,0.46C361.95,447.28,361.83,447.74,361.83,448.35z M370.87,446.64c-0.12-0.02-0.26-0.03-0.4-0.03
		c-0.54,0-0.9,0.23-1.09,0.68v3.39h-0.82v-4.78h0.79l0.01,0.55c0.27-0.43,0.65-0.64,1.14-0.64c0.16,0,0.28,0.02,0.36,0.06V446.64z
		 M375.4,449.85c-0.4,0.62-1,0.92-1.8,0.92c-0.65,0-1.17-0.21-1.58-0.64c-0.41-0.43-0.61-0.99-0.61-1.71v-0.15
		c0-0.47,0.09-0.9,0.27-1.27c0.18-0.37,0.43-0.66,0.76-0.87c0.33-0.21,0.68-0.32,1.06-0.32c0.62,0,1.1,0.2,1.45,0.61
		c0.34,0.41,0.52,0.99,0.52,1.76v0.34h-3.24c0.01,0.47,0.15,0.85,0.41,1.14c0.26,0.29,0.6,0.43,1,0.43c0.29,0,0.53-0.06,0.73-0.18
		c0.2-0.12,0.38-0.27,0.53-0.47L375.4,449.85L375.4,449.85z M373.5,446.49c-0.33,0-0.61,0.12-0.83,0.36
		c-0.22,0.24-0.36,0.58-0.42,1.01h2.39v-0.06c-0.02-0.42-0.14-0.74-0.34-0.96C374.11,446.6,373.84,446.49,373.5,446.49z
		 M376.21,448.25c0-0.75,0.17-1.34,0.52-1.78c0.34-0.44,0.81-0.66,1.39-0.66c0.57,0,1.01,0.19,1.34,0.57l0.04-0.48h0.75v6.61h-0.82
		v-2.28c-0.33,0.35-0.77,0.53-1.32,0.53c-0.58,0-1.04-0.22-1.38-0.67c-0.34-0.45-0.51-1.04-0.51-1.79V448.25z M377.03,448.35
		c0,0.55,0.12,0.98,0.35,1.29c0.23,0.31,0.54,0.47,0.93,0.47c0.49,0,0.86-0.21,1.11-0.64v-2.34c-0.26-0.42-0.63-0.63-1.1-0.63
		c-0.39,0-0.71,0.16-0.94,0.47C377.14,447.27,377.03,447.73,377.03,448.35z M384.49,450.21c-0.32,0.37-0.78,0.56-1.4,0.56
		c-0.51,0-0.9-0.15-1.16-0.44c-0.27-0.3-0.4-0.73-0.4-1.31v-3.11h0.82v3.09c0,0.72,0.29,1.09,0.88,1.09c0.62,0,1.04-0.23,1.25-0.7
		v-3.47h0.82v4.78h-0.78L384.49,450.21z M390.31,449.85c-0.4,0.62-1,0.92-1.8,0.92c-0.65,0-1.17-0.21-1.58-0.64
		c-0.41-0.43-0.61-0.99-0.61-1.71v-0.15c0-0.47,0.09-0.9,0.27-1.27c0.18-0.37,0.43-0.66,0.76-0.87c0.33-0.21,0.68-0.32,1.06-0.32
		c0.62,0,1.1,0.2,1.45,0.61c0.34,0.41,0.52,0.99,0.52,1.76v0.34h-3.24c0.01,0.47,0.15,0.85,0.41,1.14c0.26,0.29,0.6,0.43,1,0.43
		c0.29,0,0.53-0.06,0.73-0.18c0.2-0.12,0.38-0.27,0.53-0.47L390.31,449.85L390.31,449.85z M388.41,446.49
		c-0.33,0-0.61,0.12-0.83,0.36c-0.22,0.24-0.36,0.58-0.42,1.01h2.39v-0.06c-0.02-0.42-0.14-0.74-0.34-0.96
		C389.02,446.6,388.75,446.49,388.41,446.49z M394.1,449.42c0-0.22-0.08-0.39-0.25-0.51c-0.17-0.12-0.46-0.23-0.87-0.32
		c-0.41-0.09-0.74-0.19-0.98-0.32c-0.24-0.12-0.42-0.27-0.54-0.44c-0.12-0.17-0.17-0.37-0.17-0.61c0-0.39,0.17-0.72,0.5-0.99
		c0.33-0.27,0.75-0.41,1.27-0.41c0.54,0,0.98,0.14,1.32,0.42c0.34,0.28,0.51,0.64,0.51,1.07h-0.82c0-0.22-0.09-0.42-0.28-0.58
		c-0.19-0.16-0.43-0.24-0.72-0.24c-0.3,0-0.53,0.06-0.7,0.19c-0.17,0.13-0.25,0.3-0.25,0.51c0,0.2,0.08,0.35,0.23,0.45
		c0.16,0.1,0.44,0.2,0.85,0.29c0.41,0.09,0.74,0.2,0.99,0.33c0.25,0.13,0.44,0.28,0.56,0.46c0.12,0.18,0.18,0.4,0.18,0.65
		c0,0.43-0.17,0.77-0.51,1.03c-0.34,0.26-0.78,0.39-1.33,0.39c-0.38,0-0.72-0.07-1.02-0.2c-0.29-0.14-0.52-0.32-0.69-0.57
		c-0.17-0.24-0.25-0.51-0.25-0.79h0.82c0.01,0.27,0.12,0.49,0.33,0.65c0.2,0.16,0.47,0.24,0.81,0.24c0.31,0,0.56-0.06,0.74-0.19
		C394.01,449.79,394.1,449.62,394.1,449.42z M397.09,444.75v1.16h0.89v0.63h-0.89v2.97c0,0.19,0.04,0.34,0.12,0.43
		c0.08,0.1,0.21,0.14,0.41,0.14c0.09,0,0.22-0.02,0.39-0.05v0.66c-0.21,0.06-0.42,0.09-0.63,0.09c-0.37,0-0.64-0.11-0.83-0.33
		c-0.19-0.22-0.28-0.53-0.28-0.94v-2.96h-0.87v-0.63h0.87v-1.16H397.09z M402.73,449.85c-0.4,0.62-1,0.92-1.8,0.92
		c-0.65,0-1.17-0.21-1.58-0.64c-0.41-0.43-0.61-0.99-0.61-1.71v-0.15c0-0.47,0.09-0.9,0.27-1.27c0.18-0.37,0.43-0.66,0.76-0.87
		c0.33-0.21,0.68-0.32,1.06-0.32c0.62,0,1.1,0.2,1.45,0.61c0.34,0.41,0.52,0.99,0.52,1.76v0.34h-3.24c0.01,0.47,0.15,0.85,0.41,1.14
		c0.26,0.29,0.6,0.43,1,0.43c0.29,0,0.53-0.06,0.73-0.18c0.2-0.12,0.38-0.27,0.53-0.47L402.73,449.85L402.73,449.85z M400.82,446.49
		c-0.33,0-0.61,0.12-0.83,0.36c-0.22,0.24-0.36,0.58-0.42,1.01h2.39v-0.06c-0.02-0.42-0.14-0.74-0.34-0.96
		C401.43,446.6,401.16,446.49,400.82,446.49z M403.54,448.25c0-0.73,0.17-1.32,0.52-1.77c0.35-0.45,0.8-0.67,1.36-0.67
		c0.56,0,1,0.19,1.33,0.57v-2.49h0.82v6.78h-0.75l-0.04-0.51c-0.33,0.4-0.78,0.6-1.36,0.6c-0.55,0-1-0.23-1.35-0.68
		c-0.35-0.45-0.52-1.04-0.52-1.77V448.25z M404.35,448.35c0,0.54,0.11,0.97,0.34,1.27c0.22,0.31,0.53,0.46,0.93,0.46
		c0.52,0,0.9-0.23,1.13-0.7v-2.19c-0.24-0.45-0.62-0.68-1.13-0.68c-0.4,0-0.71,0.15-0.94,0.46
		C404.46,447.28,404.35,447.74,404.35,448.35z M408.85,450.25c0-0.14,0.04-0.26,0.13-0.35c0.08-0.09,0.21-0.14,0.38-0.14
		s0.3,0.05,0.38,0.14c0.09,0.09,0.13,0.21,0.13,0.35c0,0.14-0.04,0.25-0.13,0.34c-0.09,0.09-0.21,0.14-0.38,0.14
		s-0.29-0.05-0.38-0.14C408.89,450.5,408.85,450.39,408.85,450.25z"/>
	<text transform="matrix(1 0 0 1 410.5215 450.6836)" class="st10 st3 st2">  </text>
	<text transform="matrix(1 0 0 1 210.4824 481.249)" class="st8"><tspan x="0" y="0" class="st0 st9 st2">Bi</tspan><tspan x="9.62" y="0" class="st0 st9 st2">r</tspan><tspan x="13.69" y="0" class="st0 st9 st2">thday </tspan><tspan x="43.3" y="0" class="st0 st9 st2">P</tspan><tspan x="50.19" y="0" class="st0 st9 st2">a</tspan><tspan x="56.06" y="0" class="st0 st9 st2">r</tspan><tspan x="60.13" y="0" class="st0 st9 st2">ty Host and Cashier | Chuck E. Chees</tspan><tspan x="238.78" y="0" class="st0 st9 st2">e</tspan><tspan x="244.27" y="0" class="st0 st9 st2 st14">’</tspan><tspan x="245.4" y="0" class="st0 st9 st2">s </tspan></text>
	<text transform="matrix(1 0 0 1 210.4824 497.8857)" class="st8"><tspan x="0" y="0" class="st0 st3 st11">April 2016 – N</tspan><tspan x="63.61" y="0" class="st0 st3 st11">o</tspan><tspan x="69.18" y="0" class="st0 st3 st11">vember 2017 </tspan></text>
	<text transform="matrix(1 0 0 1 210.4824 514.5225)" class="st8"><tspan x="0" y="0" class="st0 st3 st12">Along with completing food and retail t</tspan><tspan x="155.38" y="0" class="st0 st3 st12">r</tspan><tspan x="158.23" y="0" class="st0 st3 st12">ansactions, I also had the </tspan></text>
	<text transform="matrix(1 0 0 1 210.4824 527.5439)" class="st8"><tspan x="0" y="0" class="st0 st3 st12">responsibility </tspan><tspan x="55.72" y="0" class="st0 st3 st12">t</tspan><tspan x="58.56" y="0" class="st0 st3 st12">o se</tspan><tspan x="75.41" y="0" class="st0 st3 st12">r</tspan><tspan x="78.54" y="0" class="st0 st3 st12">ve, organize and host s</tspan><tspan x="170.53" y="0" class="st0 st3 st12">e</tspan><tspan x="175.24" y="0" class="st0 st3 st12">ve</tspan><tspan x="184.41" y="0" class="st0 st3 st12">r</tspan><tspan x="187.3" y="0" class="st0 st3 st12">al bi</tspan><tspan x="203.92" y="0" class="st0 st3 st12">r</tspan><tspan x="207.19" y="0" class="st0 st3 st12">thday pa</tspan><tspan x="241.65" y="0" class="st0 st3 st12">r</tspan><tspan x="244.92" y="0" class="st0 st3 st12">ties a day. </tspan></text>
	<g class="st8">
		<text transform="matrix(1 0 0 1 45.0791 143.6411)" class="st0 st5 st15">North Dartmouth, MA 02747</text>
	</g>
	<g class="st8">
		<text transform="matrix(1 0 0 1 67.5664 171.2837)" class="st0 st5 st15">rwarren2@umassd.edu</text>
	</g>
	<g class="st8">
		<text transform="matrix(1 0 0 1 99.5859 157.8931)" class="st0 st5 st15">(978) - 604 - 2123</text>
	</g>
</g>
</svg>
